<?xml version="1.0" encoding="UTF-8" standalone="no"?>
<svg
   xmlns:dc="http://purl.org/dc/elements/1.1/"
   xmlns:cc="http://creativecommons.org/ns#"
   xmlns:rdf="http://www.w3.org/1999/02/22-rdf-syntax-ns#"
   xmlns:svg="http://www.w3.org/2000/svg"
   xmlns="http://www.w3.org/2000/svg"
   xmlns:xlink="http://www.w3.org/1999/xlink"
   xmlns:sodipodi="http://sodipodi.sourceforge.net/DTD/sodipodi-0.dtd"
   xmlns:inkscape="http://www.inkscape.org/namespaces/inkscape"
   width="508.19397mm"
   height="351.34012mm"
   viewBox="0 0 508.19397 351.34012"
   version="1.1"
   id="svg8"
   inkscape:version="1.0 (4035a4fb49, 2020-05-01)"
   sodipodi:docname="rede.svg">
  <defs
     id="defs2">
    <marker
       inkscape:stockid="Arrow1Mend"
       orient="auto"
       refY="0"
       refX="0"
       id="marker8366"
       style="overflow:visible"
       inkscape:isstock="true">
      <path
         id="path8364"
         d="M 0,0 5,-5 -12.5,0 5,5 Z"
         style="fill:#0098bd;fill-opacity:0.992157;fill-rule:evenodd;stroke:#0199be;stroke-width:1pt;stroke-opacity:1"
         transform="matrix(-0.4,0,0,-0.4,-4,0)" />
    </marker>
    <marker
       inkscape:stockid="Arrow1Mend"
       orient="auto"
       refY="0"
       refX="0"
       id="marker8064"
       style="overflow:visible"
       inkscape:isstock="true">
      <path
         id="path8062"
         d="M 0,0 5,-5 -12.5,0 5,5 Z"
         style="fill:#0098bd;fill-opacity:0.992157;fill-rule:evenodd;stroke:#0199be;stroke-width:1pt;stroke-opacity:1"
         transform="matrix(-0.4,0,0,-0.4,-4,0)" />
    </marker>
    <marker
       inkscape:stockid="Arrow1Mend"
       orient="auto"
       refY="0"
       refX="0"
       id="marker7442"
       style="overflow:visible"
       inkscape:isstock="true">
      <path
         id="path7440"
         d="M 0,0 5,-5 -12.5,0 5,5 Z"
         style="fill:#0098bd;fill-opacity:0.992157;fill-rule:evenodd;stroke:#0199be;stroke-width:1pt;stroke-opacity:1"
         transform="matrix(-0.4,0,0,-0.4,-4,0)" />
    </marker>
    <marker
       inkscape:stockid="Arrow1Mend"
       orient="auto"
       refY="0"
       refX="0"
       id="marker6720"
       style="overflow:visible"
       inkscape:isstock="true">
      <path
         id="path6718"
         d="M 0,0 5,-5 -12.5,0 5,5 Z"
         style="fill:#008000;fill-opacity:1;fill-rule:evenodd;stroke:#008000;stroke-width:1pt;stroke-opacity:1"
         transform="matrix(-0.4,0,0,-0.4,-4,0)" />
    </marker>
    <marker
       inkscape:stockid="Arrow1Mend"
       orient="auto"
       refY="0"
       refX="0"
       id="marker6177"
       style="overflow:visible"
       inkscape:isstock="true">
      <path
         id="path6175"
         d="M 0,0 5,-5 -12.5,0 5,5 Z"
         style="fill:#008000;fill-opacity:1;fill-rule:evenodd;stroke:#008000;stroke-width:1pt;stroke-opacity:1"
         transform="matrix(-0.4,0,0,-0.4,-4,0)" />
    </marker>
    <marker
       inkscape:stockid="Arrow1Mend"
       orient="auto"
       refY="0"
       refX="0"
       id="marker5658"
       style="overflow:visible"
       inkscape:isstock="true">
      <path
         id="path5656"
         d="M 0,0 5,-5 -12.5,0 5,5 Z"
         style="fill:#008000;fill-opacity:1;fill-rule:evenodd;stroke:#008000;stroke-width:1pt;stroke-opacity:1"
         transform="matrix(-0.4,0,0,-0.4,-4,0)" />
    </marker>
    <marker
       inkscape:stockid="Arrow1Mend"
       orient="auto"
       refY="0"
       refX="0"
       id="marker5163"
       style="overflow:visible"
       inkscape:isstock="true">
      <path
         id="path5161"
         d="M 0,0 5,-5 -12.5,0 5,5 Z"
         style="fill:#008000;fill-opacity:1;fill-rule:evenodd;stroke:#008000;stroke-width:1pt;stroke-opacity:1"
         transform="matrix(-0.4,0,0,-0.4,-4,0)" />
    </marker>
    <marker
       inkscape:stockid="Arrow1Mend"
       orient="auto"
       refY="0"
       refX="0"
       id="marker4692"
       style="overflow:visible"
       inkscape:isstock="true">
      <path
         id="path4690"
         d="M 0,0 5,-5 -12.5,0 5,5 Z"
         style="fill:#008000;fill-opacity:1;fill-rule:evenodd;stroke:#008000;stroke-width:1pt;stroke-opacity:1"
         transform="matrix(-0.4,0,0,-0.4,-4,0)" />
    </marker>
    <marker
       inkscape:stockid="Arrow1Mend"
       orient="auto"
       refY="0"
       refX="0"
       id="marker4005"
       style="overflow:visible"
       inkscape:isstock="true">
      <path
         id="path4003"
         d="M 0,0 5,-5 -12.5,0 5,5 Z"
         style="fill:#800000;fill-opacity:1;fill-rule:evenodd;stroke:#800000;stroke-width:1pt;stroke-opacity:1"
         transform="matrix(-0.4,0,0,-0.4,-4,0)" />
    </marker>
    <marker
       inkscape:stockid="Arrow1Mend"
       orient="auto"
       refY="0"
       refX="0"
       id="marker3570"
       style="overflow:visible"
       inkscape:isstock="true">
      <path
         id="path3568"
         d="M 0,0 5,-5 -12.5,0 5,5 Z"
         style="fill:#800000;fill-opacity:1;fill-rule:evenodd;stroke:#800000;stroke-width:1pt;stroke-opacity:1"
         transform="matrix(-0.4,0,0,-0.4,-4,0)" />
    </marker>
    <marker
       inkscape:stockid="Arrow1Mend"
       orient="auto"
       refY="0"
       refX="0"
       id="marker3159"
       style="overflow:visible"
       inkscape:isstock="true">
      <path
         id="path3157"
         d="M 0,0 5,-5 -12.5,0 5,5 Z"
         style="fill:#800000;fill-opacity:1;fill-rule:evenodd;stroke:#800000;stroke-width:1pt;stroke-opacity:1"
         transform="matrix(-0.4,0,0,-0.4,-4,0)" />
    </marker>
    <marker
       inkscape:stockid="Arrow1Mend"
       orient="auto"
       refY="0"
       refX="0"
       id="marker2772"
       style="overflow:visible"
       inkscape:isstock="true">
      <path
         id="path2770"
         d="M 0,0 5,-5 -12.5,0 5,5 Z"
         style="fill:#800000;fill-opacity:1;fill-rule:evenodd;stroke:#800000;stroke-width:1pt;stroke-opacity:1"
         transform="matrix(-0.4,0,0,-0.4,-4,0)" />
    </marker>
    <marker
       inkscape:stockid="Arrow1Mend"
       orient="auto"
       refY="0"
       refX="0"
       id="marker2409"
       style="overflow:visible"
       inkscape:isstock="true">
      <path
         id="path2407"
         d="M 0,0 5,-5 -12.5,0 5,5 Z"
         style="fill:#800000;fill-opacity:1;fill-rule:evenodd;stroke:#800000;stroke-width:1pt;stroke-opacity:1"
         transform="matrix(-0.4,0,0,-0.4,-4,0)" />
    </marker>
    <marker
       inkscape:stockid="Arrow1Mend"
       orient="auto"
       refY="0"
       refX="0"
       id="marker7046"
       style="overflow:visible"
       inkscape:isstock="true">
      <path
         id="path7044"
         d="M 0,0 5,-5 -12.5,0 5,5 Z"
         style="fill:#98d86f;fill-opacity:0.992157;fill-rule:evenodd;stroke:#98d86f;stroke-width:1pt;stroke-opacity:0.992157"
         transform="matrix(-0.4,0,0,-0.4,-4,0)" />
    </marker>
    <marker
       inkscape:stockid="Arrow1Mend"
       orient="auto"
       refY="0"
       refX="0"
       id="marker7036"
       style="overflow:visible"
       inkscape:isstock="true">
      <path
         id="path7034"
         d="M 0,0 5,-5 -12.5,0 5,5 Z"
         style="fill:#98d86f;fill-opacity:0.992157;fill-rule:evenodd;stroke:#98d86f;stroke-width:1pt;stroke-opacity:0.992157"
         transform="matrix(-0.4,0,0,-0.4,-4,0)" />
    </marker>
    <linearGradient
       inkscape:collect="always"
       id="linearGradient6998">
      <stop
         style="stop-color:#d8efc7;stop-opacity:1"
         offset="0"
         id="stop6994" />
      <stop
         style="stop-color:#8cd35f;stop-opacity:1"
         offset="1"
         id="stop6996" />
    </linearGradient>
    <linearGradient
       inkscape:collect="always"
       id="linearGradient6990">
      <stop
         style="stop-color:#ffc3c3;stop-opacity:0.9921568"
         offset="0"
         id="stop6986" />
      <stop
         style="stop-color:#cc4646;stop-opacity:1"
         offset="1"
         id="stop6988" />
    </linearGradient>
    <marker
       inkscape:stockid="Arrow1Mend"
       orient="auto"
       refY="0"
       refX="0"
       id="marker6690"
       style="overflow:visible"
       inkscape:isstock="true">
      <path
         id="path6688"
         d="M 0,0 5,-5 -12.5,0 5,5 Z"
         style="fill:#ffaaaa;fill-opacity:0.992157;fill-rule:evenodd;stroke:#ffaaaa;stroke-width:1pt;stroke-opacity:0.992157"
         transform="matrix(-0.4,0,0,-0.4,-4,0)" />
    </marker>
    <marker
       inkscape:stockid="Arrow1Mend"
       orient="auto"
       refY="0"
       refX="0"
       id="marker6680"
       style="overflow:visible"
       inkscape:isstock="true">
      <path
         id="path6678"
         d="M 0,0 5,-5 -12.5,0 5,5 Z"
         style="fill:#ffaaaa;fill-opacity:0.992157;fill-rule:evenodd;stroke:#ffaaaa;stroke-width:1pt;stroke-opacity:0.992157"
         transform="matrix(-0.4,0,0,-0.4,-4,0)" />
    </marker>
    <marker
       inkscape:stockid="Arrow1Mend"
       orient="auto"
       refY="0"
       refX="0"
       id="marker6670"
       style="overflow:visible"
       inkscape:isstock="true">
      <path
         id="path6668"
         d="M 0,0 5,-5 -12.5,0 5,5 Z"
         style="fill:#ffaaaa;fill-opacity:0.992157;fill-rule:evenodd;stroke:#ffaaaa;stroke-width:1pt;stroke-opacity:0.992157"
         transform="matrix(-0.4,0,0,-0.4,-4,0)" />
    </marker>
    <marker
       inkscape:isstock="true"
       style="overflow:visible"
       id="marker2071"
       refX="0"
       refY="0"
       orient="auto"
       inkscape:stockid="Arrow1Mend">
      <path
         transform="matrix(-0.4,0,0,-0.4,-4,0)"
         style="fill:#000000;fill-opacity:1;fill-rule:evenodd;stroke:#000000;stroke-width:1pt;stroke-opacity:1"
         d="M 0,0 5,-5 -12.5,0 5,5 Z"
         id="path2069" />
    </marker>
    <marker
       inkscape:collect="always"
       inkscape:isstock="true"
       style="overflow:visible"
       id="marker2061"
       refX="0"
       refY="0"
       orient="auto"
       inkscape:stockid="Arrow1Mend">
      <path
         transform="matrix(-0.4,0,0,-0.4,-4,0)"
         style="fill:#008000;fill-opacity:1;fill-rule:evenodd;stroke:#008000;stroke-width:1pt;stroke-opacity:1"
         d="M 0,0 5,-5 -12.5,0 5,5 Z"
         id="path2059" />
    </marker>
    <marker
       inkscape:isstock="true"
       style="overflow:visible"
       id="marker2051"
       refX="0"
       refY="0"
       orient="auto"
       inkscape:stockid="Arrow1Mend">
      <path
         transform="matrix(-0.4,0,0,-0.4,-4,0)"
         style="fill:#000000;fill-opacity:1;fill-rule:evenodd;stroke:#000000;stroke-width:1pt;stroke-opacity:1"
         d="M 0,0 5,-5 -12.5,0 5,5 Z"
         id="path2049" />
    </marker>
    <marker
       inkscape:isstock="true"
       style="overflow:visible"
       id="marker2041"
       refX="0"
       refY="0"
       orient="auto"
       inkscape:stockid="Arrow1Mend">
      <path
         transform="matrix(-0.4,0,0,-0.4,-4,0)"
         style="fill:#000000;fill-opacity:1;fill-rule:evenodd;stroke:#000000;stroke-width:1pt;stroke-opacity:1"
         d="M 0,0 5,-5 -12.5,0 5,5 Z"
         id="path2039" />
    </marker>
    <marker
       inkscape:isstock="true"
       style="overflow:visible"
       id="marker2031"
       refX="0"
       refY="0"
       orient="auto"
       inkscape:stockid="Arrow1Mend">
      <path
         transform="matrix(-0.4,0,0,-0.4,-4,0)"
         style="fill:#000000;fill-opacity:1;fill-rule:evenodd;stroke:#000000;stroke-width:1pt;stroke-opacity:1"
         d="M 0,0 5,-5 -12.5,0 5,5 Z"
         id="path2029" />
    </marker>
    <marker
       inkscape:isstock="true"
       style="overflow:visible"
       id="marker2021"
       refX="0"
       refY="0"
       orient="auto"
       inkscape:stockid="Arrow1Mend">
      <path
         transform="matrix(-0.4,0,0,-0.4,-4,0)"
         style="fill:#000000;fill-opacity:1;fill-rule:evenodd;stroke:#000000;stroke-width:1pt;stroke-opacity:1"
         d="M 0,0 5,-5 -12.5,0 5,5 Z"
         id="path2019" />
    </marker>
    <marker
       inkscape:isstock="true"
       style="overflow:visible"
       id="marker1897"
       refX="0"
       refY="0"
       orient="auto"
       inkscape:stockid="Arrow1Mend">
      <path
         transform="matrix(-0.4,0,0,-0.4,-4,0)"
         style="fill:#000000;fill-opacity:1;fill-rule:evenodd;stroke:#000000;stroke-width:1pt;stroke-opacity:1"
         d="M 0,0 5,-5 -12.5,0 5,5 Z"
         id="path1895" />
    </marker>
    <marker
       inkscape:isstock="true"
       style="overflow:visible"
       id="marker1740"
       refX="0"
       refY="0"
       orient="auto"
       inkscape:stockid="Arrow1Mend">
      <path
         transform="matrix(-0.4,0,0,-0.4,-4,0)"
         style="fill:#000000;fill-opacity:1;fill-rule:evenodd;stroke:#000000;stroke-width:1pt;stroke-opacity:1"
         d="M 0,0 5,-5 -12.5,0 5,5 Z"
         id="path1738" />
    </marker>
    <marker
       inkscape:isstock="true"
       style="overflow:visible"
       id="marker1730"
       refX="0"
       refY="0"
       orient="auto"
       inkscape:stockid="Arrow1Mend">
      <path
         transform="matrix(-0.4,0,0,-0.4,-4,0)"
         style="fill:#000000;fill-opacity:1;fill-rule:evenodd;stroke:#000000;stroke-width:1pt;stroke-opacity:1"
         d="M 0,0 5,-5 -12.5,0 5,5 Z"
         id="path1728" />
    </marker>
    <marker
       inkscape:isstock="true"
       style="overflow:visible"
       id="marker1720"
       refX="0"
       refY="0"
       orient="auto"
       inkscape:stockid="Arrow1Mend">
      <path
         transform="matrix(-0.4,0,0,-0.4,-4,0)"
         style="fill:#000000;fill-opacity:1;fill-rule:evenodd;stroke:#000000;stroke-width:1pt;stroke-opacity:1"
         d="M 0,0 5,-5 -12.5,0 5,5 Z"
         id="path1718" />
    </marker>
    <marker
       inkscape:collect="always"
       inkscape:isstock="true"
       style="overflow:visible"
       id="marker1710"
       refX="0"
       refY="0"
       orient="auto"
       inkscape:stockid="Arrow1Mend">
      <path
         transform="matrix(-0.4,0,0,-0.4,-4,0)"
         style="fill:#800000;fill-opacity:1;fill-rule:evenodd;stroke:#800000;stroke-width:1pt;stroke-opacity:1"
         d="M 0,0 5,-5 -12.5,0 5,5 Z"
         id="path1708" />
    </marker>
    <marker
       inkscape:stockid="Arrow2Lend"
       orient="auto"
       refY="0"
       refX="0"
       id="marker1592"
       style="overflow:visible"
       inkscape:isstock="true">
      <path
         id="path1590"
         style="fill:#000000;fill-opacity:1;fill-rule:evenodd;stroke:#000000;stroke-width:0.625;stroke-linejoin:round;stroke-opacity:1"
         d="M 8.7185878,4.0337352 -2.2072895,0.01601326 8.7185884,-4.0017078 c -1.7454984,2.3720609 -1.7354408,5.6174519 -6e-7,8.035443 z"
         transform="matrix(-1.1,0,0,-1.1,-1.1,0)" />
    </marker>
    <marker
       inkscape:stockid="Arrow1Mend"
       orient="auto"
       refY="0"
       refX="0"
       id="Arrow1Mend"
       style="overflow:visible"
       inkscape:isstock="true">
      <path
         id="path1159"
         d="M 0,0 5,-5 -12.5,0 5,5 Z"
         style="fill:#000000;fill-opacity:1;fill-rule:evenodd;stroke:#000000;stroke-width:1pt;stroke-opacity:1"
         transform="matrix(-0.4,0,0,-0.4,-4,0)" />
    </marker>
    <marker
       inkscape:stockid="Arrow2Lend"
       orient="auto"
       refY="0"
       refX="0"
       id="Arrow2Lend"
       style="overflow:visible"
       inkscape:isstock="true">
      <path
         id="path1171"
         style="fill:#000000;fill-opacity:1;fill-rule:evenodd;stroke:#000000;stroke-width:0.625;stroke-linejoin:round;stroke-opacity:1"
         d="M 8.7185878,4.0337352 -2.2072895,0.01601326 8.7185884,-4.0017078 c -1.7454984,2.3720609 -1.7354408,5.6174519 -6e-7,8.035443 z"
         transform="matrix(-1.1,0,0,-1.1,-1.1,0)" />
    </marker>
    <marker
       inkscape:isstock="true"
       style="overflow:visible"
       id="marker1620-4"
       refX="0"
       refY="0"
       orient="auto"
       inkscape:stockid="Arrow1Mend">
      <path
         transform="matrix(-0.4,0,0,-0.4,-4,0)"
         style="fill:#000000;fill-opacity:1;fill-rule:evenodd;stroke:#000000;stroke-width:1pt;stroke-opacity:1"
         d="M 0,0 5,-5 -12.5,0 5,5 Z"
         id="path1618-7" />
    </marker>
    <marker
       inkscape:isstock="true"
       style="overflow:visible"
       id="marker1620-45"
       refX="0"
       refY="0"
       orient="auto"
       inkscape:stockid="Arrow1Mend">
      <path
         transform="matrix(-0.4,0,0,-0.4,-4,0)"
         style="fill:#000000;fill-opacity:1;fill-rule:evenodd;stroke:#000000;stroke-width:1pt;stroke-opacity:1"
         d="M 0,0 5,-5 -12.5,0 5,5 Z"
         id="path1618-0" />
    </marker>
    <marker
       inkscape:stockid="Arrow1Mend"
       orient="auto"
       refY="0"
       refX="0"
       id="marker2091-2"
       style="overflow:visible"
       inkscape:isstock="true">
      <path
         id="path2089-0"
         d="M 0,0 5,-5 -12.5,0 5,5 Z"
         style="fill:#000000;fill-opacity:1;fill-rule:evenodd;stroke:#000000;stroke-width:1pt;stroke-opacity:1"
         transform="matrix(-0.4,0,0,-0.4,-4,0)" />
    </marker>
    <radialGradient
       inkscape:collect="always"
       xlink:href="#linearGradient6990"
       id="radialGradient6992"
       cx="-2031.4489"
       cy="-156.32292"
       fx="-2031.4489"
       fy="-156.32292"
       r="19.593534"
       gradientTransform="translate(-929.05534,-30.0953)"
       gradientUnits="userSpaceOnUse" />
    <radialGradient
       inkscape:collect="always"
       xlink:href="#linearGradient6998"
       id="radialGradient7000"
       cx="-1856.9587"
       cy="-173.47362"
       fx="-1856.9587"
       fy="-173.47362"
       r="19.593534"
       gradientTransform="translate(-929.05534,-30.095308)"
       gradientUnits="userSpaceOnUse" />
    <marker
       inkscape:stockid="Arrow1Mend"
       orient="auto"
       refY="0"
       refX="0"
       id="marker1710-3"
       style="overflow:visible"
       inkscape:isstock="true">
      <path
         id="path1708-5"
         d="M 0,0 5,-5 -12.5,0 5,5 Z"
         style="fill:#800000;fill-opacity:1;fill-rule:evenodd;stroke:#800000;stroke-width:1pt;stroke-opacity:1"
         transform="matrix(-0.4,0,0,-0.4,-4,0)" />
    </marker>
    <marker
       inkscape:stockid="Arrow1Mend"
       orient="auto"
       refY="0"
       refX="0"
       id="marker1710-2"
       style="overflow:visible"
       inkscape:isstock="true">
      <path
         id="path1708-9"
         d="M 0,0 5,-5 -12.5,0 5,5 Z"
         style="fill:#800000;fill-opacity:1;fill-rule:evenodd;stroke:#800000;stroke-width:1pt;stroke-opacity:1"
         transform="matrix(-0.4,0,0,-0.4,-4,0)" />
    </marker>
    <marker
       inkscape:stockid="Arrow1Mend"
       orient="auto"
       refY="0"
       refX="0"
       id="marker1710-27"
       style="overflow:visible"
       inkscape:isstock="true">
      <path
         id="path1708-0"
         d="M 0,0 5,-5 -12.5,0 5,5 Z"
         style="fill:#800000;fill-opacity:1;fill-rule:evenodd;stroke:#800000;stroke-width:1pt;stroke-opacity:1"
         transform="matrix(-0.4,0,0,-0.4,-4,0)" />
    </marker>
    <marker
       inkscape:stockid="Arrow1Mend"
       orient="auto"
       refY="0"
       refX="0"
       id="marker1710-36"
       style="overflow:visible"
       inkscape:isstock="true">
      <path
         id="path1708-06"
         d="M 0,0 5,-5 -12.5,0 5,5 Z"
         style="fill:#800000;fill-opacity:1;fill-rule:evenodd;stroke:#800000;stroke-width:1pt;stroke-opacity:1"
         transform="matrix(-0.4,0,0,-0.4,-4,0)" />
    </marker>
    <marker
       inkscape:stockid="Arrow1Mend"
       orient="auto"
       refY="0"
       refX="0"
       id="marker1710-6"
       style="overflow:visible"
       inkscape:isstock="true">
      <path
         id="path1708-1"
         d="M 0,0 5,-5 -12.5,0 5,5 Z"
         style="fill:#800000;fill-opacity:1;fill-rule:evenodd;stroke:#800000;stroke-width:1pt;stroke-opacity:1"
         transform="matrix(-0.4,0,0,-0.4,-4,0)" />
    </marker>
    <marker
       inkscape:stockid="Arrow1Mend"
       orient="auto"
       refY="0"
       refX="0"
       id="marker2061-7"
       style="overflow:visible"
       inkscape:isstock="true">
      <path
         id="path2059-9"
         d="M 0,0 5,-5 -12.5,0 5,5 Z"
         style="fill:#008000;fill-opacity:1;fill-rule:evenodd;stroke:#008000;stroke-width:1pt;stroke-opacity:1"
         transform="matrix(-0.4,0,0,-0.4,-4,0)" />
    </marker>
    <marker
       inkscape:stockid="Arrow1Mend"
       orient="auto"
       refY="0"
       refX="0"
       id="marker2061-0"
       style="overflow:visible"
       inkscape:isstock="true">
      <path
         id="path2059-2"
         d="M 0,0 5,-5 -12.5,0 5,5 Z"
         style="fill:#008000;fill-opacity:1;fill-rule:evenodd;stroke:#008000;stroke-width:1pt;stroke-opacity:1"
         transform="matrix(-0.4,0,0,-0.4,-4,0)" />
    </marker>
    <marker
       inkscape:stockid="Arrow1Mend"
       orient="auto"
       refY="0"
       refX="0"
       id="marker2061-75"
       style="overflow:visible"
       inkscape:isstock="true">
      <path
         id="path2059-92"
         d="M 0,0 5,-5 -12.5,0 5,5 Z"
         style="fill:#008000;fill-opacity:1;fill-rule:evenodd;stroke:#008000;stroke-width:1pt;stroke-opacity:1"
         transform="matrix(-0.4,0,0,-0.4,-4,0)" />
    </marker>
    <marker
       inkscape:stockid="Arrow1Mend"
       orient="auto"
       refY="0"
       refX="0"
       id="marker2061-8"
       style="overflow:visible"
       inkscape:isstock="true">
      <path
         id="path2059-97"
         d="M 0,0 5,-5 -12.5,0 5,5 Z"
         style="fill:#008000;fill-opacity:1;fill-rule:evenodd;stroke:#008000;stroke-width:1pt;stroke-opacity:1"
         transform="matrix(-0.4,0,0,-0.4,-4,0)" />
    </marker>
    <marker
       inkscape:stockid="Arrow1Mend"
       orient="auto"
       refY="0"
       refX="0"
       id="marker2061-6"
       style="overflow:visible"
       inkscape:isstock="true">
      <path
         id="path2059-1"
         d="M 0,0 5,-5 -12.5,0 5,5 Z"
         style="fill:#008000;fill-opacity:1;fill-rule:evenodd;stroke:#008000;stroke-width:1pt;stroke-opacity:1"
         transform="matrix(-0.4,0,0,-0.4,-4,0)" />
    </marker>
    <marker
       inkscape:stockid="Arrow1Mend"
       orient="auto"
       refY="0"
       refX="0"
       id="marker2081-9"
       style="overflow:visible"
       inkscape:isstock="true">
      <path
         id="path2079-3"
         d="M 0,0 5,-5 -12.5,0 5,5 Z"
         style="fill:#0098bd;fill-opacity:0.992157;fill-rule:evenodd;stroke:#0199be;stroke-width:1pt;stroke-opacity:1"
         transform="matrix(-0.4,0,0,-0.4,-4,0)" />
    </marker>
  </defs>
  <sodipodi:namedview
     id="base"
     pagecolor="#ffffff"
     bordercolor="#666666"
     borderopacity="1.0"
     inkscape:pageopacity="0.0"
     inkscape:pageshadow="2"
     inkscape:zoom="0.37201605"
     inkscape:cx="1145.9194"
     inkscape:cy="671.02069"
     inkscape:document-units="mm"
     inkscape:current-layer="layer1"
     inkscape:document-rotation="0"
     showgrid="false"
     inkscape:snap-global="false"
     inkscape:window-width="1366"
     inkscape:window-height="702"
     inkscape:window-x="0"
     inkscape:window-y="29"
     inkscape:window-maximized="1" />
  <metadata
     id="metadata5">
    <rdf:RDF>
      <cc:Work
         rdf:about="">
        <dc:format>image/svg+xml</dc:format>
        <dc:type
           rdf:resource="http://purl.org/dc/dcmitype/StillImage" />
        <dc:title />
      </cc:Work>
    </rdf:RDF>
  </metadata>
  <g
     inkscape:label="Layer 1"
     inkscape:groupmode="layer"
     id="layer1"
     transform="translate(2980.1392,254.5645)">
    <path
       style="font-variation-settings:normal;opacity:1;vector-effect:none;fill:#ffaaaa;fill-opacity:0.992157;fill-rule:evenodd;stroke:#ffaaaa;stroke-width:1.32292;stroke-linecap:butt;stroke-linejoin:miter;stroke-miterlimit:4;stroke-dasharray:none;stroke-dashoffset:0;stroke-opacity:0.992157;marker-end:url(#marker6670);stop-color:#000000;stop-opacity:1"
       d="m -2961.7371,-191.0167 153.8272,38.04543"
       id="path6520" />
    <path
       style="font-variation-settings:normal;opacity:1;vector-effect:none;fill:#800000;fill-opacity:1;fill-rule:evenodd;stroke:#800000;stroke-width:1.32292;stroke-linecap:butt;stroke-linejoin:miter;stroke-miterlimit:4;stroke-dasharray:none;stroke-dashoffset:0;stroke-opacity:1;marker-end:url(#marker4005);stop-color:#000000;stop-opacity:1"
       d="m -2941.6273,-120.42105 136.7362,-19.71522"
       id="path1584" />
    <path
       style="font-variation-settings:normal;opacity:1;vector-effect:none;fill:#800000;fill-opacity:1;fill-rule:evenodd;stroke:#800000;stroke-width:1.32292;stroke-linecap:butt;stroke-linejoin:miter;stroke-miterlimit:4;stroke-dasharray:none;stroke-dashoffset:0;stroke-opacity:1;marker-end:url(#marker3159);stop-color:#000000;stop-opacity:1"
       d="m -2947.7821,37.814619 149.0458,-166.463829"
       id="path1582" />
    <path
       style="font-variation-settings:normal;opacity:1;vector-effect:none;fill:#ffaaaa;fill-opacity:0.992157;fill-rule:evenodd;stroke:#ffaaaa;stroke-width:1.32292;stroke-linecap:butt;stroke-linejoin:miter;stroke-miterlimit:4;stroke-dasharray:none;stroke-dashoffset:0;stroke-opacity:0.992157;marker-end:url(#marker6680);stop-color:#000000;stop-opacity:1"
       d="m -2962.4429,-188.28145 161.7255,136.472562"
       id="path6516" />
    <path
       style="font-variation-settings:normal;opacity:1;vector-effect:none;fill:#800000;fill-opacity:1;fill-rule:evenodd;stroke:#800000;stroke-width:1.32292;stroke-linecap:butt;stroke-linejoin:miter;stroke-miterlimit:4;stroke-dasharray:none;stroke-dashoffset:0;stroke-opacity:1;marker-end:url(#marker3570);stop-color:#000000;stop-opacity:1"
       d="m -2943.3528,-109.35792 140.1872,68.178573"
       id="path1586" />
    <path
       style="font-variation-settings:normal;opacity:1;vector-effect:none;fill:#800000;fill-opacity:1;fill-rule:evenodd;stroke:#800000;stroke-width:1.32292;stroke-linecap:butt;stroke-linejoin:miter;stroke-miterlimit:4;stroke-dasharray:none;stroke-dashoffset:0;stroke-opacity:1;marker-end:url(#marker2409);stop-color:#000000;stop-opacity:1"
       d="m -2943.3528,43.682019 140.1872,-68.17857"
       id="path1580" />
    <path
       style="font-variation-settings:normal;opacity:1;vector-effect:none;fill:#ffaaaa;fill-opacity:0.992157;fill-rule:evenodd;stroke:#ffaaaa;stroke-width:1.28763;stroke-linecap:butt;stroke-linejoin:miter;stroke-miterlimit:4;stroke-dasharray:none;stroke-dashoffset:0;stroke-opacity:0.992157;marker-end:url(#marker6690);stop-color:#000000;stop-opacity:1"
       d="m -2961.8207,-186.76971 165.9723,241.777284"
       id="path6514" />
    <path
       style="font-variation-settings:normal;opacity:1;vector-effect:none;fill:#800000;fill-opacity:1;fill-rule:evenodd;stroke:#800000;stroke-width:1.32292;stroke-linecap:butt;stroke-linejoin:miter;stroke-miterlimit:4;stroke-dasharray:none;stroke-dashoffset:0;stroke-opacity:1;marker-end:url(#marker1710);stop-color:#000000;stop-opacity:1"
       d="m -2941.6273,54.745156 136.7362,19.715204"
       id="path1578" />
    <path
       style="font-variation-settings:normal;opacity:1;vector-effect:none;fill:#800000;fill-opacity:1;fill-rule:evenodd;stroke:#800000;stroke-width:1.32292;stroke-linecap:butt;stroke-linejoin:miter;stroke-miterlimit:4;stroke-dasharray:none;stroke-dashoffset:0;stroke-opacity:1;marker-end:url(#marker2772);stop-color:#000000;stop-opacity:1"
       d="m -2947.7821,-103.49052 149.0458,166.463823"
       id="path1588" />
    <path
       style="font-variation-settings:normal;opacity:1;vector-effect:none;fill:#008000;fill-opacity:1;fill-rule:evenodd;stroke:#008000;stroke-width:1.32292;stroke-linecap:butt;stroke-linejoin:miter;stroke-miterlimit:4;stroke-dasharray:none;stroke-dashoffset:0;stroke-opacity:1;marker-end:url(#marker5163);stop-color:#000000;stop-opacity:1"
       d="m -2767.3432,73.29178 137.1477,-28.576195"
       id="path1985" />
    <path
       style="font-variation-settings:normal;opacity:1;vector-effect:none;fill:#008000;fill-opacity:1;fill-rule:evenodd;stroke:#008000;stroke-width:1.32292;stroke-linecap:butt;stroke-linejoin:miter;stroke-miterlimit:4;stroke-dasharray:none;stroke-dashoffset:0;stroke-opacity:1;marker-end:url(#marker4692);stop-color:#000000;stop-opacity:1"
       d="m -2768.4438,-25.420358 139.349,58.828034"
       id="path1983" />
    <path
       style="font-variation-settings:normal;opacity:1;vector-effect:none;fill:#008000;fill-opacity:1;fill-rule:evenodd;stroke:#008000;stroke-width:1.32292;stroke-linecap:butt;stroke-linejoin:miter;stroke-miterlimit:4;stroke-dasharray:none;stroke-dashoffset:0;stroke-opacity:1;marker-end:url(#marker5658);stop-color:#000000;stop-opacity:1"
       d="M -2772.8786,-129.03031 -2624.66,26.997568"
       id="path1981" />
    <path
       style="font-variation-settings:normal;opacity:1;vector-effect:none;fill:none;fill-opacity:1;fill-rule:evenodd;stroke:#98d86f;stroke-width:1.32292;stroke-linecap:butt;stroke-linejoin:miter;stroke-miterlimit:4;stroke-dasharray:none;stroke-dashoffset:0;stroke-opacity:0.992157;marker-end:url(#marker7036);stop-color:#000000;stop-opacity:1"
       d="m -2775.0349,-201.62103 153.7917,76.97603"
       id="path7006" />
    <path
       style="font-variation-settings:normal;opacity:1;vector-effect:none;fill:none;fill-opacity:1;fill-rule:evenodd;stroke:#98d86f;stroke-width:1.32292;stroke-linecap:butt;stroke-linejoin:miter;stroke-miterlimit:4;stroke-dasharray:none;stroke-dashoffset:0;stroke-opacity:0.992157;marker-end:url(#marker7046);stop-color:#000000;stop-opacity:1"
       d="m -2776.8711,-195.06222 156.9907,218.354381"
       id="path7004" />
    <path
       style="font-variation-settings:normal;opacity:1;vector-effect:none;fill:#008000;fill-opacity:1;fill-rule:evenodd;stroke:#008000;stroke-width:1.32292;stroke-linecap:butt;stroke-linejoin:miter;stroke-miterlimit:4;stroke-dasharray:none;stroke-dashoffset:0;stroke-opacity:1;marker-end:url(#marker6720);stop-color:#000000;stop-opacity:1"
       d="m -2767.3432,-138.96769 137.1477,28.5762"
       id="path1977" />
    <path
       style="font-variation-settings:normal;opacity:1;vector-effect:none;fill:#008000;fill-opacity:1;fill-rule:evenodd;stroke:#008000;stroke-width:1.32292;stroke-linecap:butt;stroke-linejoin:miter;stroke-miterlimit:4;stroke-dasharray:none;stroke-dashoffset:0;stroke-opacity:1;marker-end:url(#marker6177);stop-color:#000000;stop-opacity:1"
       d="m -2768.4438,-40.25554 139.349,-58.828041"
       id="path1979" />
    <path
       style="font-variation-settings:normal;opacity:1;vector-effect:none;fill:#008000;fill-opacity:1;fill-rule:evenodd;stroke:#008000;stroke-width:1.32292;stroke-linecap:butt;stroke-linejoin:miter;stroke-miterlimit:4;stroke-dasharray:none;stroke-dashoffset:0;stroke-opacity:1;marker-end:url(#marker2061);stop-color:#000000;stop-opacity:1"
       d="M -2772.8786,63.354403 -2624.66,-92.673474"
       id="path1987" />
    <path
       id="path8032"
       d="m -2598.549,28.344937 90.4534,-51.716525"
       style="font-variation-settings:normal;opacity:1;vector-effect:none;fill:#0098bd;fill-opacity:0.992157;fill-rule:evenodd;stroke:#0199be;stroke-width:1.32292;stroke-linecap:butt;stroke-linejoin:miter;stroke-miterlimit:4;stroke-dasharray:none;stroke-dashoffset:0;stroke-opacity:1;marker-end:url(#marker8366);stop-color:#000000;stop-opacity:1" />
    <path
       id="path8034"
       d="m -2596.5621,-97.143433 88.7581,54.346297"
       style="font-variation-settings:normal;opacity:1;vector-effect:none;fill:#0098bd;fill-opacity:0.992157;fill-rule:evenodd;stroke:#0199be;stroke-width:1.32292;stroke-linecap:butt;stroke-linejoin:miter;stroke-miterlimit:4;stroke-dasharray:none;stroke-dashoffset:0;stroke-opacity:1;marker-end:url(#marker8064);stop-color:#000000;stop-opacity:1" />
    <path
       d="m -2798.4133,22.504738 q 0,-0.211741 -0.1007,-0.383198 0.033,-0.213373 0.2062,-0.333252 0.1777,-0.124444 0.3931,-0.08618 0.2156,0.03789 0.3381,0.212201 0,0.215587 0.087,0.389611 -0.036,0.210521 -0.2177,0.336751 -0.1776,0.12438 -0.3821,0.08808 -0.2018,-0.0383 -0.3307,-0.222087 z m -0.9317,-2.229478 q -0.447,0.313033 -0.3314,0.950276 0.1101,0.636714 0.811,1.620116 0.6884,0.98267 1.2445,1.311455 0.5596,0.326463 1.0062,0.01355 0.4503,-0.315272 0.3316,-0.950381 -0.1101,-0.63813 -0.8032,-1.620189 -0.6908,-0.985916 -1.25,-1.312411 -0.5562,-0.328739 -1.0062,-0.01353 z m -0.3571,-0.506231 q 0.7577,-0.530499 1.5797,-0.179971 0.825,0.348407 1.6751,1.56263 0.8489,1.21069 0.894,2.105273 0.048,0.892315 -0.7093,1.422743 -0.7578,0.530594 -1.5798,0.180025 -0.8217,-0.350637 -1.67,-1.561603 -0.8505,-1.214094 -0.8946,-2.108132 -0.048,-0.892254 0.7094,-1.422806 z m 5.5882,-6.466343 2.1744,-1.522669 0.3779,0.538559 -2.8755,2.013458 -0.3759,-0.539734 q 0.1555,-1.039697 0.2641,-1.829119 0.1087,-0.789541 0.139,-1.10381 0.044,-0.608696 -0.01,-0.9242962 -0.07,-0.317133 -0.2331,-0.569248 -0.2761,-0.396879 -0.67,-0.457054 -0.3887,-0.06316 -0.7947,0.221151 -0.2882,0.201765 -0.5322,0.528529 -0.2438,0.326672 -0.4501,0.7876512 l -0.4543,-0.6458782 q 0.2176,-0.383941 0.4759,-0.682872 0.2617,-0.301374 0.5693,-0.516763 0.6942,-0.486092 1.3755,-0.41042 0.6823,0.07036 1.1021,0.669446 0.2117,0.304418 0.2842,0.70842 0.08,0.400727 0.017,0.9918092 -0.03,0.330103 -0.1173,0.932528 -0.081,0.599844 -0.2633,1.809815 z m -5.0131,1.275352 1.6516,-1.1565 0.3638,0.520131 -1.652,1.156622 z m -6.2433,0.355464 0.6437,-0.450716 2.9364,4.194706 2.2861,-1.600624 0.3759,0.539763 -2.9293,2.051183 z m 2.183,8.565977 q -1.0299,-1.472866 -2.023,-1.894854 -0.9934,-0.422129 -1.9084,0.218555 -0.9219,0.64555 -0.8667,1.734689 0.048,1.082475 1.0802,2.546108 1.0214,1.458482 2.0259,1.882836 1.0052,0.424187 1.9266,-0.221208 0.915,-0.640681 0.8579,-1.718237 -0.057,-1.07738 -1.092,-2.548088 z m -5.7356,-0.269604 q -0.098,-0.775653 0.2254,-1.449662 0.325,-0.678594 1.0266,-1.169898 1.3901,-0.973226 2.9394,-0.458756 1.5448,0.507581 2.8599,2.385742 1.3352,1.905185 1.2937,3.555125 -0.041,1.639048 -1.4383,2.616902 -0.6883,0.481774 -1.425,0.556836 -0.7346,0.06338 -1.4508,-0.286144 l 0.68,0.969484 -1.2656,0.886265 -7.4958,-10.704972 1.2662,-0.886416 z"
       style="font-size:15.8221px;line-height:1.25;font-family:monospace;-inkscape-font-specification:monospace;font-variation-settings:normal;word-spacing:0px;baseline-shift:sub;opacity:1;vector-effect:none;fill:#f87272;fill-opacity:0.992157;stroke-width:0.186961;stroke-linecap:butt;stroke-linejoin:miter;stroke-miterlimit:4;stroke-dasharray:none;stroke-dashoffset:0;stroke-opacity:1;stop-color:#000000;stop-opacity:1"
       id="path1978" />
    <path
       d="m -2816.273,-70.896134 0.9525,0.771352 2.802,-3.461653 -1.2118,-0.599681 0.4531,-0.557313 1.2014,0.600901 0.6128,0.496332 -3.25,4.013152 0.9404,0.761525 -0.4197,0.514233 -2.4997,-2.024175 z m 12.5307,0.652204 2.081,1.685228 -0.4181,0.514995 -2.7513,-2.227797 0.4183,-0.515298 q 1.051,-0.138191 1.8466,-0.252378 0.7958,-0.11402 1.1087,-0.172014 0.6028,-0.12461 0.8934,-0.265978 0.293,-0.144553 0.4867,-0.384314 0.3088,-0.377794 0.2512,-0.778209 -0.046,-0.394486 -0.4348,-0.7088 -0.2761,-0.223644 -0.6604,-0.369094 -0.3845,-0.145566 -0.8889,-0.217399 l 0.502,-0.618258 q 0.4323,0.104122 0.7942,0.271572 0.365,0.169939 0.659,0.408041 0.6645,0.537918 0.7803,1.219528 0.122,0.681257 -0.3469,1.253229 -0.2374,0.289583 -0.6085,0.471691 -0.369,0.183407 -0.9577,0.289352 -0.3298,0.05959 -0.9364,0.145782 -0.6044,0.08826 -1.8277,0.247543 z m -2.6298,-4.5052 1.5803,1.279688 -0.402,0.498045 -1.5805,-1.279876 z m -2.0802,-5.953546 0.6159,0.498511 -3.2497,4.013299 2.1867,1.7707 -0.4199,0.514284 -2.8032,-2.269827 z m -7.6319,4.458817 q 1.1309,-1.396876 1.2673,-2.465714 0.1324,-1.07067 -0.7357,-1.773751 -0.8748,-0.708163 -1.9064,-0.355018 -1.0266,0.346755 -2.1525,1.736901 -1.1203,1.383919 -1.255,2.464558 -0.1329,1.082396 0.7436,1.790997 0.8676,0.702767 1.8876,0.350707 1.0202,-0.351993 2.1512,-1.748636 z m -1.3213,-5.587606 q 0.7204,-0.302742 1.4553,-0.182943 0.7418,0.125095 1.4075,0.664161 1.3185,1.067587 1.251,2.698914 -0.056,1.625098 -1.5049,3.4068 -1.4639,1.808046 -3.0629,2.220801 -1.5867,0.411652 -2.9122,-0.661491 -0.6521,-0.528327 -0.9278,-1.216047 -0.2633,-0.688778 -0.1247,-1.473569 l -0.7459,0.920007 -1.2004,-0.972312 8.2234,-10.156355 1.2015,0.972794 z"
       style="font-size:15.8221px;line-height:1.25;font-family:monospace;-inkscape-font-specification:monospace;font-variation-settings:normal;word-spacing:0px;baseline-shift:sub;opacity:1;vector-effect:none;fill:#f87272;fill-opacity:0.992157;stroke-width:0.186961;stroke-linecap:butt;stroke-linejoin:miter;stroke-miterlimit:4;stroke-dasharray:none;stroke-dashoffset:0;stroke-opacity:1;stop-color:#000000;stop-opacity:1"
       id="path1988" />
    <path
       d="m -2838.3283,-165.62074 2.5863,0.69294 -0.1725,0.64071 -3.4198,-0.91633 0.1743,-0.64041 q 0.9041,-0.55385 1.5846,-0.9817 0.6801,-0.4279 0.9427,-0.60808 0.5005,-0.35894 0.7079,-0.60638 0.2087,-0.2512 0.2888,-0.54901 0.1251,-0.47117 -0.081,-0.81373 -0.2033,-0.34137 -0.686,-0.47074 -0.3432,-0.0918 -0.7533,-0.069 -0.4108,0.0233 -0.9004,0.1628 l 0.207,-0.76895 q 0.4378,-0.0807 0.8363,-0.0749 0.4022,0.007 0.768,0.10492 0.8257,0.22119 1.2089,0.7967 0.388,0.57271 0.1971,1.28533 -0.098,0.36112 -0.3638,0.67837 -0.2626,0.31751 -0.7567,0.65388 -0.2769,0.18844 -0.7967,0.51392 -0.5159,0.32651 -1.5688,0.9697 z m 10.9694,-4.69999 2.5867,0.69301 -0.1736,0.64055 -3.4194,-0.91628 0.1744,-0.64042 q 0.9041,-0.55382 1.5845,-0.98173 0.6802,-0.42784 0.9427,-0.60805 0.5004,-0.35895 0.708,-0.60639 0.2085,-0.25117 0.2887,-0.549 0.1271,-0.47082 -0.082,-0.8138 -0.2033,-0.34142 -0.6856,-0.47069 -0.3435,-0.0918 -0.7537,-0.069 -0.4103,0.0235 -0.9001,0.16288 l 0.207,-0.76896 q 0.4376,-0.0808 0.8359,-0.075 0.4024,0.007 0.7681,0.10482 0.8256,0.22128 1.209,0.79672 0.3882,0.57273 0.1971,1.28531 -0.1003,0.36087 -0.3639,0.67839 -0.2624,0.31753 -0.7569,0.65382 -0.2764,0.18853 -0.7963,0.51401 -0.5158,0.3265 -1.5691,0.9696 z m -4.2348,-3.04612 1.9642,0.52635 -0.1647,0.61854 -1.964,-0.52633 z m -4.3216,-4.59272 0.7655,0.20502 -1.3365,4.98808 2.7183,0.72836 -0.1744,0.64038 -3.4837,-0.93341 z m -5.1587,7.17748 q 0.4642,-1.73629 0.1547,-2.76789 -0.3149,-1.03208 -1.3937,-1.3212 -1.0872,-0.2913 -1.8861,0.45113 -0.7966,0.73425 -1.2596,2.4622 -0.4605,1.71988 -0.1443,2.76197 0.3209,1.0424 1.4078,1.33364 1.0789,0.28914 1.8676,-0.44735 0.7885,-0.73647 1.2537,-2.4725 z m -3.4801,-4.56698 q 0.5351,-0.56963 1.2553,-0.75917 0.7285,-0.1874 1.5562,0.0342 1.6385,0.43909 2.2403,1.95679 0.6043,1.50959 0.011,3.72429 -0.6028,2.247 -1.8948,3.27459 -1.2822,1.0215 -2.929,0.58027 -0.8113,-0.21731 -1.3423,-0.73358 -0.5209,-0.52215 -0.7137,-1.29549 l -0.308,1.14356 -1.4923,-0.40004 3.382,-12.62307 1.4927,0.4001 z"
       style="font-size:15.8221px;line-height:1.25;font-family:monospace;-inkscape-font-specification:monospace;font-variation-settings:normal;word-spacing:0px;baseline-shift:sub;opacity:1;vector-effect:none;fill:#f87272;fill-opacity:0.992157;stroke-width:0.186961;stroke-linecap:butt;stroke-linejoin:miter;stroke-miterlimit:4;stroke-dasharray:none;stroke-dashoffset:0;stroke-opacity:1;stop-color:#000000;stop-opacity:1"
       id="path1998" />
    <path
       d="m -2635.2439,-11.97973 q 0,-0.212857 0.3837,-0.111107 0.2163,0.02376 0.3457,0.18958 0.1346,0.172148 0.108,0.391424 0.01,0.220599 -0.1981,0.350016 0,0.216739 -0.3882,0.105054 -0.2138,-0.02654 -0.3502,-0.201247 -0.1349,-0.172342 -0.1091,-0.380552 -0.01,-0.209144 0.2098,-0.34224 z m 2.1947,-1.056126 q -0.3386,-0.4334 -0.9744,-0.283647 -0.6324,0.153149 -1.5886,0.90009 -0.9531,0.744589 -1.2553,1.320765 -0.2949,0.5824 0.038,1.013368 0.3413,0.4366973 0.9741,0.2835713 0.6356,-0.149706 1.5886,-0.8941283 0.9556,-0.747405 1.2556,-1.326865 0.2928,-0.581493 -0.039,-1.013785 z m 0.4927,-0.383339 q 0.5742,0.734934 0.264,1.580273 -0.3092,0.848063 -1.4835,1.769358 -1.1744,0.9173073 -2.0723,1.0098843 -0.895,0.096056 -1.4697,-0.63905 -0.5739,-0.7346423 -0.2641,-1.5801983 0.3099,-0.845769 1.4809,-1.765596 1.1769,-0.920112 2.0729,-1.015524 0.8954,-0.09572 1.4691,0.638891 z m 6.5564,4.967069 0.7534,0.9649725 3.5078,-2.7400765 -1.0451,-0.856285 0.5667,-0.440777 1.0342,0.855076 0.485,0.620938 -4.067,3.1773895 0.745,0.9531577 -0.5232,0.4076711 -1.9791,-2.5329502 z m -1.3012,-4.662124 1.2511,1.601504 -0.5029,0.394873 -1.2519,-1.601735 z m -0.687,-6.265058 0.4876,0.624078 -4.0668,3.177475 1.7313,2.216188 -0.5239,0.406884 -2.2187,-2.84023 z m -8.5226,2.692535 q 1.416,-1.107163 1.7815,-2.124188 0.3699,-1.013427 -0.3175,-1.893412 -0.6929,-0.886991 -1.7777,-0.774852 -1.0786,0.106762 -2.4884,1.208026 -1.4025,1.096604 -1.7769,2.119174 -0.3732,1.024781 0.3214,1.912181 0.6874,0.880008 1.7606,0.766475 1.073,-0.113388 2.4892,-1.220001 z m -0.031,-5.741726 q 0.7702,-0.132852 1.4595,0.149275 0.6944,0.288632 1.2218,0.963538 1.0446,1.336855 0.6124,2.911617 -0.4293,1.568052 -2.2333,2.980381 -1.8338,1.431602 -3.4838,1.474979 -1.6389,0.04403 -2.6888,-1.299526 -0.5168,-0.661777 -0.6309,-1.393917 -0.1017,-0.730534 0.2065,-1.464351 l -0.9341,0.727954 -0.9513,-1.217675 10.2982,-8.045591 0.951,1.217594 z"
       style="font-size:15.8221px;line-height:1.25;font-family:monospace;-inkscape-font-specification:monospace;font-variation-settings:normal;word-spacing:0px;baseline-shift:sub;opacity:1;vector-effect:none;fill:#5dda0b;fill-opacity:0.992157;stroke-width:0.186961;stroke-linecap:butt;stroke-linejoin:miter;stroke-miterlimit:4;stroke-dasharray:none;stroke-dashoffset:0;stroke-opacity:1;stop-color:#000000;stop-opacity:1"
       id="path2008" />
    <path
       d="m -2648.1208,-143.43736 1.1104,0.54156 1.9676,-4.03492 -1.3263,-0.31454 0.3201,-0.6496 1.3156,0.31775 0.7145,0.3483 -2.2823,4.67828 1.0962,0.53465 -0.2958,0.60013 -2.9137,-1.42115 z m 12.0906,-2.3784 1.1102,0.54152 1.9677,-4.03494 -1.3261,-0.31443 0.3197,-0.64962 1.3158,0.31768 0.7143,0.34848 -2.282,4.67833 1.0964,0.5347 -0.2963,0.60007 -2.9137,-1.42121 z m -3.2403,-3.65096 1.8424,0.89867 -0.281,0.58065 -1.8422,-0.89855 z m -3.3926,-5.37546 0.7177,0.35001 -2.2819,4.67835 2.5496,1.24355 -0.2951,0.60036 -3.2674,-1.59359 z m -6.4797,6.15601 q 0.7871,-1.61579 0.6802,-2.68752 -0.1118,-1.07324 -1.1164,-1.56285 -1.0113,-0.49336 -1.9374,0.0829 -0.9224,0.56877 -1.7064,2.17659 -0.7803,1.60043 -0.6687,2.68372 0.1159,1.08438 1.1275,1.57777 1.0039,0.48971 1.9186,-0.0827 0.9145,-0.5725 1.7023,-2.18792 z m -2.5447,-5.14714 q 0.6337,-0.45706 1.3774,-0.50559 0.7507,-0.045 1.5204,0.33032 1.5252,0.74378 1.8264,2.34841 0.3049,1.5971 -0.6999,3.65797 -1.0203,2.09062 -2.4847,2.85291 -1.4537,0.75807 -2.9863,0.0106 -0.7547,-0.36815 -1.1773,-0.97617 -0.4121,-0.61208 -0.4534,-1.40787 l -0.5205,1.06383 -1.3892,-0.67765 5.7289,-11.74569 1.389,0.67748 z"
       style="font-size:15.8221px;line-height:1.25;font-family:monospace;-inkscape-font-specification:monospace;font-variation-settings:normal;word-spacing:0px;baseline-shift:sub;opacity:1;vector-effect:none;fill:#5dda0b;fill-opacity:0.992157;stroke-width:0.186961;stroke-linecap:butt;stroke-linejoin:miter;stroke-miterlimit:4;stroke-dasharray:none;stroke-dashoffset:0;stroke-opacity:1;stop-color:#000000;stop-opacity:1"
       id="path2018" />
    <path
       id="circle837"
       style="opacity:0.989982;fill:#ffaaaa;stroke:#000000;stroke-width:1.04237;stop-color:#000000"
       d="m -2941.4318,-117.69931 a 19.072342,19.072342 0 0 1 -19.0723,19.072336 19.072342,19.072342 0 0 1 -19.0724,-19.072336 19.072342,19.072342 0 0 1 19.0724,-19.07235 19.072342,19.072342 0 0 1 19.0723,19.07235" />
    <path
       id="circle835"
       style="opacity:0.989982;fill:#ffaaaa;stroke:#000000;stroke-width:1.04237;stop-color:#000000"
       d="m -2941.4318,52.023417 a 19.072342,19.072342 0 0 1 -19.0723,19.072343 19.072342,19.072342 0 0 1 -19.0724,-19.072343 19.072342,19.072342 0 0 1 19.0724,-19.072342 19.072342,19.072342 0 0 1 19.0723,19.072342" />
    <path
       id="path833"
       style="opacity:0.989982;fill:#c6e9af;stroke:#000000;stroke-width:1.04237;stop-color:#000000"
       d="m -2766.9419,-142.85801 a 19.072342,19.072342 0 0 1 -19.0724,19.07235 19.072342,19.072342 0 0 1 -19.0723,-19.07235 19.072342,19.072342 0 0 1 19.0723,-19.07234 19.072342,19.072342 0 0 1 19.0724,19.07234" />
    <path
       id="circle882"
       style="opacity:0.989982;fill:#c6e9af;stroke:#000000;stroke-width:1.04237;stop-color:#000000"
       d="m -2766.9419,-32.837949 a 19.072342,19.072342 0 0 1 -19.0724,19.072342 19.072342,19.072342 0 0 1 -19.0723,-19.072342 19.072342,19.072342 0 0 1 19.0723,-19.072342 19.072342,19.072342 0 0 1 19.0724,19.072342" />
    <path
       id="circle888"
       style="opacity:0.989982;fill:#c6e9af;stroke:#000000;stroke-width:1.04237;stop-color:#000000"
       d="m -2766.9419,77.1821 a 19.072342,19.072342 0 0 1 -19.0724,19.072339 19.072342,19.072342 0 0 1 -19.0723,-19.072339 19.072342,19.072342 0 0 1 19.0723,-19.072341 19.072342,19.072342 0 0 1 19.0724,19.072341" />
    <path
       id="circle925"
       style="opacity:0.989982;fill:#aaeeff;stroke:#000000;stroke-width:1.04237;stop-color:#000000"
       d="m -2592.4521,40.825266 a 19.072342,19.072342 0 0 1 -19.0723,19.072342 19.072342,19.072342 0 0 1 -19.0723,-19.072342 19.072342,19.072342 0 0 1 19.0723,-19.072341 19.072342,19.072342 0 0 1 19.0723,19.072341" />
    <path
       id="circle894"
       style="opacity:0.989982;fill:#ffaaaa;stroke:#000000;stroke-width:1.04237;stop-color:#000000"
       d="m -2592.4521,-106.50117 a 19.072342,19.072342 0 0 1 -19.0723,19.072339 19.072342,19.072342 0 0 1 -19.0723,-19.072339 19.072342,19.072342 0 0 1 19.0723,-19.07234 19.072342,19.072342 0 0 1 19.0723,19.07234" />
    <path
       id="circle931"
       style="opacity:0.989982;fill:#aaeeff;stroke:#000000;stroke-width:1.04237;stop-color:#000000"
       d="m -2592.4521,-106.50117 a 19.072342,19.072342 0 0 1 -19.0723,19.072339 19.072342,19.072342 0 0 1 -19.0723,-19.072339 19.072342,19.072342 0 0 1 19.0723,-19.07234 19.072342,19.072342 0 0 1 19.0723,19.07234" />
    <path
       id="circle937"
       style="opacity:0.989982;fill:#ddafe9;stroke:#000000;stroke-width:1.04237;stop-color:#000000"
       d="m -2472.4664,-32.837952 a 19.072342,19.072342 0 0 1 -19.0723,19.072341 19.072342,19.072342 0 0 1 -19.0724,-19.072341 19.072342,19.072342 0 0 1 19.0724,-19.072342 19.072342,19.072342 0 0 1 19.0723,19.072342" />
    <path
       id="path4031"
       style="font-style:normal;font-variant:normal;font-weight:normal;font-stretch:normal;font-size:13.763px;line-height:1.25;font-family:monospace;-inkscape-font-specification:monospace;word-spacing:0px;stroke-width:0.258057"
       d="m -2494.6381,-37.760077 h 6.0684 v 1.120913 h -4.6848 v 2.914372 h 4.4794 v 1.120912 h -4.4794 v 3.567139 h 4.815 v 1.120913 h -6.1986 z" />
    <path
       id="path6468"
       style="font-variation-settings:normal;opacity:0.989982;vector-effect:none;fill:url(#radialGradient6992);fill-opacity:1;stroke:#000000;stroke-width:1.04237;stroke-linecap:butt;stroke-linejoin:miter;stroke-miterlimit:4;stroke-dasharray:none;stroke-dashoffset:0;stroke-opacity:1;stop-color:#000000;stop-opacity:1"
       d="m -2941.4318,-186.41814 a 19.072342,19.072342 0 0 1 -19.0723,19.07234 19.072342,19.072342 0 0 1 -19.0724,-19.07234 19.072342,19.072342 0 0 1 19.0724,-19.07234 19.072342,19.072342 0 0 1 19.0723,19.07234" />
    <path
       style="font-style:normal;font-variant:normal;font-weight:normal;font-stretch:normal;font-size:14.1111px;line-height:1.25;font-family:monospace;-inkscape-font-specification:monospace;word-spacing:0px;stroke-width:0.264583"
       d="m -2963.2603,-182.44594 h 2.1635 v -7.8617 l -2.3288,0.52364 v -1.26778 l 2.3151,-0.50989 h 1.3918 v 9.11573 h 2.1359 v 1.17133 h -5.6774 z"
       id="path6968" />
    <path
       d="m -2766.9419,-203.56883 a 19.072342,19.072342 0 0 1 -19.0723,19.07234 19.072342,19.072342 0 0 1 -19.0724,-19.07234 19.072342,19.072342 0 0 1 19.0724,-19.07234 19.072342,19.072342 0 0 1 19.0723,19.07234"
       style="font-variation-settings:normal;opacity:0.989982;vector-effect:none;fill:url(#radialGradient7000);fill-opacity:1;stroke:#000000;stroke-width:1.04237;stroke-linecap:butt;stroke-linejoin:miter;stroke-miterlimit:4;stroke-dasharray:none;stroke-dashoffset:0;stroke-opacity:1;stop-color:#000000;stop-opacity:1"
       id="path6466" />
    <path
       id="path7002"
       d="m -2788.7704,-199.59663 h 2.1635 v -7.8617 l -2.3288,0.52364 v -1.26778 l 2.3151,-0.50989 h 1.3918 v 9.11573 h 2.1359 v 1.17133 h -5.6774 z"
       style="font-style:normal;font-variant:normal;font-weight:normal;font-stretch:normal;font-size:14.1111px;line-height:1.25;font-family:monospace;-inkscape-font-specification:monospace;word-spacing:0px;stroke-width:0.264583" />
    <path
       d="m -2951.1866,52.140213 q 0,-0.475833 0.3288,-0.821895 0.3374,-0.346061 0.8046,-0.346061 0.4845,0 0.8306,0.346061 0.346,0.346062 0.346,0.821895 0,0.484486 -0.346,0.821896 -0.3375,0.337409 -0.8306,0.337409 -0.4844,0 -0.8132,-0.328758 -0.3202,-0.328758 -0.3202,-0.830547 z m 1.1507,-5.277431 q -1.2198,0 -1.8254,1.315032 -0.597,1.315032 -0.597,4.005657 0,2.681974 0.597,3.997005 0.6056,1.315029 1.8254,1.315029 1.2285,0 1.8255,-1.315029 0.6056,-1.315031 0.6056,-3.997005 0,-2.690625 -0.6056,-4.005657 -0.597,-1.315032 -1.8255,-1.315032 z m 0,-1.384245 q 2.0677,0 3.1232,1.695699 1.0642,1.6957 1.0642,5.009235 0,3.304884 -1.0642,5.00058 -1.0555,1.695702 -3.1232,1.695702 -2.0677,0 -3.1232,-1.695702 -1.0555,-1.695696 -1.0555,-5.00058 0,-3.313535 1.0555,-5.009235 1.0555,-1.695699 3.1232,-1.695699 z m -15.2353,8.616922 h 9.1447 v 1.488062 h -9.1447 z m 0,-3.512521 h 9.1447 v 1.47076 h -9.1447 z m -9.2139,-1.64379 h 4.0748 v 8.452544 h 3.1579 v 1.237168 h -7.9075 v -1.237168 h 3.1578 v -7.215375 h -2.483 z m 2.483,-3.772066 h 1.5918 v 2.015806 h -1.5918 z"
       style="font-size:24.3417px;line-height:1.25;font-family:monospace;-inkscape-font-specification:monospace;word-spacing:0px;stroke-width:0.19259"
       id="path216" />
    <path
       d="m -2952.99,-112.34115 h 2.7214 v -10.05538 l -2.9294,0.66977 v -1.62155 l 2.9121,-0.65214 h 1.7507 v 11.6593 h 2.6867 v 1.49817 h -7.1415 z m -12.2637,-3.11973 h 9.161 v 1.5158 h -9.161 z m 0,-3.57798 h 9.161 v 1.49817 h -9.161 z m -9.2302,-1.67443 h 4.0821 v 8.61008 h 3.1634 v 1.26023 h -7.9215 v -1.26023 h 3.1634 v -7.34985 h -2.4874 z m 2.4874,-3.84237 h 1.5947 v 2.05338 h -1.5947 z"
       style="font-size:24.3417px;line-height:1.25;font-family:monospace;-inkscape-font-specification:monospace;word-spacing:0px;stroke-width:0.194549"
       id="path222" />
    <path
       d="m -2778.5906,75.902154 q 0,-0.38052 0.263,-0.65726 0.2698,-0.27675 0.6434,-0.27675 0.3874,0 0.6642,0.27675 0.2767,0.27674 0.2767,0.65726 0,0.38744 -0.2767,0.65727 -0.2699,0.26983 -0.6642,0.26983 -0.3874,0 -0.6504,-0.26291 -0.256,-0.26291 -0.256,-0.66419 z m 0.9202,-4.22034 q -0.9755,0 -1.4598,1.05162 -0.4775,1.05163 -0.4775,3.20332 0,2.14476 0.4775,3.19639 0.4843,1.05163 1.4598,1.05163 0.9825,0 1.4599,-1.05163 0.4843,-1.05163 0.4843,-3.19639 0,-2.15169 -0.4843,-3.20332 -0.4775,-1.05162 -1.4599,-1.05162 z m 0,-1.10698 q 1.6536,0 2.4976,1.35605 0.8511,1.35604 0.8511,4.00587 0,2.64291 -0.8511,3.99895 -0.844,1.35605 -2.4976,1.35605 -1.6535,0 -2.4976,-1.35605 -0.844,-1.35604 -0.844,-3.99895 0,-2.64983 0.844,-4.00587 0.844,-1.35605 2.4976,-1.35605 z m -12.1836,6.89093 h 7.313 v 1.19 h -7.313 z m 0,-2.80896 h 7.313 v 1.17617 h -7.313 z m -4.9883,6.57268 v -6.89785 h -2.1933 v -0.98936 h 3.4663 v 7.88721 q 0,1.34913 -0.6227,2.07558 -0.6157,0.73337 -1.7573,0.73337 h -1.7574 v -1.0793 h 1.619 q 0.6227,0 0.934,-0.43587 0.3114,-0.42896 0.3114,-1.29378 z m 0,-10.90372 h 1.273 v 1.61203 h -1.273 z"
       style="font-size:24.3417px;line-height:1.25;font-family:monospace;-inkscape-font-specification:monospace;word-spacing:0px;stroke-width:0.154014"
       id="path228" />
    <path
       d="m -2780.0328,-30.105099 h 2.1763 v -7.89412 l -2.3426,0.52581 v -1.27302 l 2.3288,-0.51198 h 1.4 v 9.15331 h 2.1486 v 1.17616 h -5.7111 z m -9.8072,-2.44919 h 7.326 v 1.19 h -7.326 z m 0,-2.80895 h 7.326 v 1.17616 h -7.326 z m -4.9972,6.57267 v -6.89784 h -2.1972 v -0.98936 h 3.4724 v 7.8872 q 0,1.34912 -0.6238,2.07558 -0.6168,0.73337 -1.7604,0.73337 h -1.7605 v -1.0793 h 1.6219 q 0.6238,0 0.9356,-0.43587 0.312,-0.42896 0.312,-1.29378 z m 0,-10.90371 h 1.2752 v 1.61203 h -1.2752 z"
       style="font-size:24.3417px;line-height:1.25;font-family:monospace;-inkscape-font-specification:monospace;word-spacing:0px;stroke-width:0.154151"
       id="path234" />
    <path
       d="m -2779.1262,-140.12516 h 4.8045 v 1.17617 h -6.3522 v -1.17617 q 1.3096,-1.36296 2.2901,-2.40767 0.9805,-1.04471 1.3517,-1.47366 0.7004,-0.84407 0.9455,-1.36297 0.2452,-0.52581 0.2452,-1.07238 0,-0.86482 -0.5183,-1.35605 -0.5113,-0.49122 -1.4078,-0.49122 -0.6373,0 -1.3376,0.22832 -0.7004,0.22831 -1.4848,0.69186 v -1.4114 q 0.7214,-0.33901 1.4147,-0.51197 0.7004,-0.17297 1.3797,-0.17297 1.5338,0 2.4652,0.80948 0.9386,0.80255 0.9386,2.11017 0,0.66419 -0.3152,1.32837 -0.3082,0.66419 -1.0085,1.46674 -0.3922,0.44972 -1.1416,1.24535 -0.7424,0.79564 -2.2692,2.38 z m -10.6315,-2.44918 h 7.4028 v 1.19 h -7.4028 z m 0,-2.80896 h 7.4028 v 1.17617 h -7.4028 z m -5.0495,6.57268 v -6.89785 h -2.2201 v -0.98936 h 3.5088 v 7.88721 q 0,1.34912 -0.6304,2.07558 -0.6234,0.73337 -1.7788,0.73337 h -1.779 v -1.0793 h 1.6388 q 0.6303,0 0.9455,-0.43588 0.3152,-0.42895 0.3152,-1.29377 z m 0,-10.90372 h 1.2887 v 1.61203 h -1.2887 z"
       style="font-size:24.3417px;line-height:1.25;font-family:monospace;-inkscape-font-specification:monospace;word-spacing:0px;stroke-width:0.154957"
       id="path240" />
    <path
       d="m -2602.2998,40.942061 q 0,-0.47583 0.3345,-0.82189 0.3433,-0.34606 0.8187,-0.34606 0.4928,0 0.845,0.34606 0.3521,0.34606 0.3521,0.82189 0,0.48449 -0.3521,0.8219 -0.3434,0.33741 -0.845,0.33741 -0.4929,0 -0.8275,-0.32876 -0.3257,-0.32876 -0.3257,-0.83055 z m 1.1707,-5.27743 q -1.241,0 -1.8572,1.31503 -0.6073,1.31503 -0.6073,4.00566 0,2.68198 0.6073,3.99701 0.6162,1.31503 1.8572,1.31503 1.25,0 1.8574,-1.31503 0.6161,-1.31503 0.6161,-3.99701 0,-2.69063 -0.6161,-4.00566 -0.6074,-1.31503 -1.8574,-1.31503 z m 0,-1.38424 q 2.1038,0 3.1776,1.69569 1.0829,1.69571 1.0829,5.00924 0,3.30488 -1.0829,5.00059 -1.0738,1.69569 -3.1776,1.69569 -2.1037,0 -3.1776,-1.69569 -1.0738,-1.69571 -1.0738,-5.00059 0,-3.31353 1.0738,-5.00924 1.0739,-1.69569 3.1776,-1.69569 z m -15.5005,8.61692 h 9.3038 v 1.48806 h -9.3038 z m 0,-3.51252 h 9.3038 v 1.47076 h -9.3038 z m -9.5505,-5.41586 h 1.6725 v 7.79503 l 4.2514,-4.02296 h 1.9717 l -3.8818,3.65094 4.4892,6.03877 h -1.9805 l -3.6441,-5.00058 -1.2059,1.11604 v 3.88454 h -1.6725 z"
       style="font-size:24.3417px;line-height:1.25;font-family:monospace;-inkscape-font-specification:monospace;word-spacing:0px;stroke-width:0.19426"
       id="path246" />
    <path
       d="m -2604.1348,-101.143 h 2.769 v -10.05538 l -2.9805,0.66977 v -1.62155 l 2.9627,-0.65214 h 1.7813 v 11.6593 h 2.7337 v 1.498172 h -7.2663 z m -12.4776,-3.11973 h 9.3208 v 1.51581 h -9.3208 z m 0,-3.57798 h 9.3208 v 1.49817 h -9.3208 z m -9.5677,-5.5168 h 1.6755 v 7.94031 l 4.2591,-4.09794 h 1.9753 l -3.8888,3.71899 4.4973,6.151322 h -1.9842 l -3.6506,-5.093782 -1.2081,1.13684 v 3.956942 h -1.6755 z"
       style="font-size:24.3417px;line-height:1.25;font-family:monospace;-inkscape-font-specification:monospace;word-spacing:0px;stroke-width:0.196239"
       id="path252" />
    <path
       d="m -2739.976,-55.473961 1.1683,-0.402259 -1.4622,-4.24433 -1.1601,0.715681 -0.2373,-0.684118 1.1549,-0.705636 0.7517,-0.258837 1.695,4.921565 1.153,-0.397025 0.2196,0.632036 -3.0655,1.055472 z m -4.5867,1.579342 1.168,-0.402166 -1.4619,-4.244403 -1.1604,0.715761 -0.2364,-0.684343 1.1554,-0.705745 0.7512,-0.258628 1.6947,4.921577 1.1534,-0.39713 0.2196,0.632028 -3.0651,1.055428 z m 6.8673,-10.230967 1.1682,-0.40225 -1.4622,-4.244338 -1.1601,0.71567 -0.2373,-0.68413 1.1552,-0.70571 0.7511,-0.25862 1.6949,4.921552 1.1534,-0.397087 0.2195,0.632019 -3.0654,1.05548 z m -4.8727,-0.29038 1.938,-0.66735 0.2094,0.610198 -1.9384,0.667445 z m -6.2001,-1.402103 0.755,-0.259952 1.6948,4.921565 2.6821,-0.923506 0.2198,0.632019 -3.4373,1.183514 z m -14.8572,5.115763 2.0451,-0.704202 5.6936,9.415823 -0.438,-7.11477 1.7641,-0.607469 4.0575,5.868624 -1.311,-10.924874 2.0454,-0.70431 1.3893,13.600482 -1.978,0.681056 -4.3877,-6.207475 0.3757,7.588995 -1.9775,0.680902 z"
       style="font-size:15.8221px;line-height:1.25;font-family:monospace;-inkscape-font-specification:monospace;word-spacing:0px;baseline-shift:sub;fill:#008000;stroke-width:0.134743"
       id="path777" />
    <path
       d="m -2683.0383,-124.93729 2.6302,0.60719 -0.1535,0.6513 -3.477,-0.80276 0.1535,-0.65128 q 0.8914,-0.58968 1.5615,-1.04467 0.6705,-0.45493 0.9284,-0.64573 0.4915,-0.37914 0.6919,-0.63573 0.2014,-0.26035 0.2715,-0.56318 0.1118,-0.47881 -0.1102,-0.81686 -0.2172,-0.33682 -0.7079,-0.45012 -0.3488,-0.0802 -0.7613,-0.0429 -0.4126,0.0381 -0.9012,0.19574 l 0.1807,-0.78204 q 0.4379,-0.0967 0.8396,-0.10493 0.4055,-0.007 0.7774,0.0786 0.8398,0.19379 1.2459,0.76009 0.411,0.56329 0.2437,1.28783 -0.088,0.3671 -0.3425,0.6962 -0.2536,0.32907 -0.7397,0.68525 -0.2721,0.19965 -0.7839,0.54581 -0.5082,0.34706 -1.5468,1.03195 z m -5.1215,-1.18238 1.2037,0.27794 1.0096,-4.37415 -1.3633,-0.008 0.1657,-0.70493 1.3537,0.0136 0.774,0.17879 -1.1709,5.07176 1.1884,0.2744 -0.1523,0.65138 -3.1589,-0.72927 z m 11.2452,-5.03726 1.2042,0.27798 1.0094,-4.37414 -1.363,-0.008 0.1656,-0.70493 1.3536,0.0136 0.7742,0.1788 -1.1711,5.07176 1.1884,0.27439 -0.1524,0.65137 -3.1588,-0.72929 z m -3.9782,-2.82835 1.9974,0.46118 -0.1433,0.62898 -1.9972,-0.46116 z m -4.515,-4.47458 0.778,0.17951 -1.1708,5.07179 2.7639,0.63811 -0.1533,0.65128 -3.5422,-0.81772 z m -15.3107,-3.53477 2.1076,0.48662 -0.161,11.00216 3.3983,-6.26603 1.8182,0.41982 0.3306,7.12692 4.6781,-9.95939 2.1077,0.48661 -6.0288,12.27016 -2.0381,-0.47054 -0.4313,-7.58929 -3.7033,6.63476 -2.0379,-0.47054 z"
       style="font-size:15.8221px;line-height:1.25;font-family:monospace;-inkscape-font-specification:monospace;word-spacing:0px;baseline-shift:sub;fill:#008000;stroke-width:0.134743"
       id="path803" />
    <path
       d="m -2752.4536,33.258268 q 0,-0.213117 -0.1598,-0.365727 0.01,-0.216734 0.1523,-0.364172 0.157,-0.151657 0.3779,-0.147917 0.2205,0.0039 0.3697,0.158028 0,0.216994 0.1476,0.374426 -0.01,0.21461 -0.1637,0.369551 -0.1568,0.151585 -0.3665,0.147968 -0.2072,-0.0063 -0.3641,-0.169053 z m -1.2804,-2.071728 q -0.396,0.382243 -0.1802,0.998336 0.2091,0.616538 1.0617,1.485801 0.8396,0.870226 1.445,1.109597 0.6085,0.236807 1.0043,-0.14528 0.3984,-0.384697 0.1798,-0.998038 -0.2108,-0.617874 -1.0562,-1.485553 -0.8423,-0.873089 -1.4511,-1.109562 -0.6055,-0.239564 -1.004,0.145366 z m -0.4348,-0.448108 q 0.6706,-0.647606 1.5443,-0.428259 0.8761,0.216706 1.914,1.291427 1.0354,1.071825 1.2205,1.955658 0.1892,0.880547 -0.4823,1.52841 -0.6702,0.64739 -1.5435,0.428048 -0.8734,-0.219452 -1.9089,-1.291295 -1.0376,-1.074955 -1.2225,-1.957894 -0.1892,-0.880613 0.4818,-1.528201 z m -0.7725,8.067042 0.8813,-0.850944 -3.0923,-3.201545 -0.7426,1.129183 -0.4961,-0.518189 0.7424,-1.118154 0.5666,-0.547342 3.5853,3.712438 0.8695,-0.83994 0.4613,0.476581 -2.312,2.232868 z m 1.8838,-12.071164 0.8815,-0.851133 -3.0921,-3.201477 -0.7426,1.129189 -0.4989,-0.515921 0.7423,-1.11827 0.5669,-0.547353 3.585,3.712577 0.8698,-0.839907 0.4625,0.475351 -2.312,2.232744 z m -4.5003,1.780827 1.4625,-1.412066 0.4434,0.46099 -1.4618,1.411709 z m -6.1591,1.338174 0.5698,-0.550178 3.5853,3.712438 2.0229,-1.953642 0.4615,0.476521 -2.5928,2.503915 z m -11.3029,10.915282 1.556,-1.502568 9.1395,6.127451 -3.4039,-6.263046 1.3419,-1.29605 6.157,3.604249 -5.8041,-9.347837 1.5559,-1.502613 7.0072,11.739007 -1.5047,1.453083 -6.6002,-3.771568 3.5479,6.719141 -1.5046,1.452968 z"
       style="font-size:15.8221px;line-height:1.25;font-family:monospace;-inkscape-font-specification:monospace;word-spacing:0px;baseline-shift:sub;fill:#008000;stroke-width:0.133598"
       id="path790" />
    <path
       d="m -2735.9333,-95.876798 1.7905,1.988752 -0.4949,0.441713 -2.3673,-2.62925 0.4942,-0.442337 q 1.0591,0.02769 1.8623,0.03941 0.8033,0.01172 1.1211,0.0035 0.615,-0.02843 0.9237,-0.12276 0.3114,-0.09708 0.5405,-0.30316 0.3629,-0.325402 0.3695,-0.728894 0.024,-0.396481 -0.3188,-0.768154 -0.2373,-0.263458 -0.5939,-0.467922 -0.3567,-0.203452 -0.8433,-0.353576 l 0.5927,-0.531457 q 0.4107,0.17011 0.7413,0.391874 0.3335,0.224799 0.5871,0.506032 0.5713,0.635038 0.5795,1.325866 0.014,0.691323 -0.5386,1.182702 -0.2781,0.249921 -0.674,0.370694 -0.3934,0.123019 -0.9907,0.13593 -0.3344,0.0074 -0.9472,-0.0027 -0.6099,-0.0071 -1.843,-0.04137 z m -1.2502,-4.769542 q 0,-0.213 0.3745,-0.13784 0.218,0.009 0.3591,0.16535 0.1454,0.16246 0.1343,0.38253 0.01,0.22054 -0.1732,0.363021 0,0.21686 -0.3799,0.13189 -0.2148,-0.0118 -0.3637,-0.17639 -0.1464,-0.162931 -0.1354,-0.371731 -0.01,-0.20834 0.1856,-0.35605 z m 2.1156,-1.2067 q -0.3676,-0.40903 -0.9911,-0.21477 -0.6209,0.19677 -1.5222,1.00865 -0.8987,0.8093 -1.1607,1.404971 -0.2533,0.601619 0.1099,1.008373 0.371,0.411767 0.9915,0.215032 0.6235,-0.193908 1.5224,-1.002985 0.9006,-0.812411 1.1598,-1.411151 0.2517,-0.60045 -0.1104,-1.00855 z m 0.4649,-0.41664 q 0.6237,0.69292 0.3742,1.55817 -0.2495,0.867461 -1.3573,1.867929 -1.1077,0.997021 -1.9967,1.152242 -0.8867,0.157821 -1.5107,-0.535151 -0.6239,-0.692859 -0.3743,-1.558149 0.2501,-0.865141 1.3544,-1.864431 1.1102,-0.99996 1.9966,-1.1578 0.887,-0.15786 1.5109,0.53502 z m 6.8867,4.497524 0.8193,0.910103 3.3077,-2.978146 -1.1023,-0.781661 0.5328,-0.48084 1.0921,0.78092 0.5267,0.585241 -3.835,3.453572 0.8093,0.898789 -0.4934,0.443257 -2.1509,-2.388885 z m -1.6228,-4.559864 1.3598,1.51033 -0.4751,0.4287 -1.3594,-1.51032 z m -1.1224,-6.20195 0.5295,0.58842 -3.8354,3.4533 1.8821,2.09019 -0.4932,0.44322 -2.4119,-2.67869 z m -10.5145,-11.67749 1.4473,1.60765 -6.4423,8.92014 6.3779,-3.18358 1.2483,1.38665 -3.8171,6.02765 9.5443,-5.47534 1.4476,1.60779 -11.9765,6.59315 -1.3996,-1.55458 4.0003,-6.46379 -6.839,3.31098 -1.3995,-1.55461 z"
       style="font-size:15.8221px;line-height:1.25;font-family:monospace;-inkscape-font-specification:monospace;word-spacing:0px;baseline-shift:sub;fill:#ff6600;stroke-width:0.133598"
       id="path764" />
    <path
       d="m -2728.2799,-12.530668 1.1356,0.458821 1.6675,-4.126803 -1.3332,-0.218966 0.2691,-0.665309 1.3236,0.223441 0.7305,0.295139 -1.9332,4.785192 1.1212,0.453008 -0.248,0.614959 -2.9808,-1.204224 z m -2.8417,-3.588381 q 0,-0.213831 0.2766,-0.288016 0.1992,-0.08772 0.3946,-0.0088 0.2024,0.08182 0.2886,0.284947 0.085,0.203104 0,0.401901 0,0.217722 -0.2835,0.285133 -0.1982,0.08404 -0.4043,7.45e-4 -0.2026,-0.08182 -0.2845,-0.274828 -0.08,-0.191533 0.01,-0.401253 z m 1.3724,-2.011971 q -0.51,-0.206057 -0.9853,0.241445 -0.4716,0.448974 -0.9262,1.573777 -0.4527,1.121358 -0.4268,1.771516 0.033,0.652147 0.5409,0.858044 0.5138,0.207633 0.9854,-0.241346 0.4754,-0.447457 0.9285,-1.56868 0.4538,-1.125092 0.4236,-1.776867 -0.029,-0.650649 -0.5409,-0.858096 z m 0.2351,-0.578302 q 0.8647,0.34927 1.0192,1.236426 0.1585,0.888636 -0.4012,2.273916 -0.5583,1.381643 -1.2899,1.910761 -0.7275,0.530634 -1.5921,0.18135 -0.8642,-0.349186 -1.0192,-1.236393 -0.1546,-0.887147 0.3997,-2.2695 0.5597,-1.385322 1.2876,-1.915832 0.7276,-0.53071 1.5922,-0.181397 z m 8.1611,1.023352 1.1357,0.458868 1.6678,-4.126765 -1.3337,-0.219016 0.2679,-0.665673 1.3236,0.223442 0.7308,0.295203 -1.9334,4.785156 1.121,0.452958 -0.2509,0.61405 -2.9802,-1.204114 z m -3.4573,-3.386869 1.8843,0.761319 -0.2387,0.593496 -1.8845,-0.761374 z m -3.7275,-5.082233 0.7341,0.296609 -1.9329,4.785228 2.6075,1.053582 -0.2511,0.614028 -3.3418,-1.350243 z m -14.5694,-5.886387 2.0057,0.810324 -1.8802,10.841489 4.3369,-5.65721 1.7301,0.699042 -0.7885,7.090903 6.1783,-9.105017 2.0059,0.810395 -7.8739,11.175996 -1.9397,-0.783597 0.7613,-7.563399 -4.6953,5.973855 -1.9395,-0.783635 z"
       style="font-size:15.8221px;line-height:1.25;font-family:monospace;-inkscape-font-specification:monospace;word-spacing:0px;baseline-shift:sub;fill:#008000;stroke-width:0.133598"
       id="path751" />
    <path
       d="m -2617.0274,-236.65886 v -17.74519 h 3.5062 v 14.65494 h 7.4999 v 3.09025 z"
       style="font-style:normal;font-variant:normal;font-weight:bold;font-stretch:normal;font-size:24.3417px;line-height:1.25;font-family:monospace;-inkscape-font-specification:'monospace Bold';word-spacing:0px;fill:#000080;stroke-width:0.264583"
       id="path9662" />
    <path
       d="m -2777.2071,-239.74911 h 3.9223 v -11.51715 l -3.6489,0.90331 v -3.16157 l 3.6726,-0.87953 h 3.3874 v 14.65494 h 3.9223 v 3.09025 h -11.2557 z m -13.3119,-5.64566 h 7.4998 v 3.45871 h -7.4998 z m -15.5582,8.73591 v -17.74519 h 3.5062 v 14.65494 h 7.4999 v 3.09025 z"
       style="font-style:normal;font-variant:normal;font-weight:bold;font-stretch:normal;font-size:24.3417px;line-height:1.25;font-family:monospace;-inkscape-font-specification:'monospace Bold';word-spacing:0px;fill:#000080;stroke-width:0.264583"
       id="path9659" />
    <path
       d="m -2948.3452,-239.58865 h 7.476 v 3.09025 h -11.2676 v -2.99517 l 1.9017,-2.02055 q 3.3874,-3.60133 4.1125,-4.43333 0.8914,-1.02216 1.2836,-1.80661 0.3922,-0.79633 0.3922,-1.5689 0,-1.18855 -0.725,-1.83038 -0.7131,-0.6537 -2.0324,-0.6537 -0.939,0 -2.1157,0.38033 -1.1648,0.36846 -2.4365,1.08159 v -3.26854 q 1.2717,-0.46353 2.4841,-0.70125 1.2242,-0.24959 2.3414,-0.24959 2.8169,0 4.4215,1.3193 1.6164,1.30741 1.6164,3.57756 0,1.04593 -0.3565,1.96113 -0.3447,0.91519 -1.2005,2.03243 -0.6299,0.80822 -3.4587,3.63699 -1.5332,1.53325 -2.4365,2.44844 z m -16.2358,-5.64566 h 7.4998 v 3.45871 h -7.4998 z m -15.5582,8.73591 v -17.74519 h 3.5062 v 14.65494 h 7.4998 v 3.09025 z"
       style="font-style:normal;font-variant:normal;font-weight:bold;font-stretch:normal;font-size:24.3417px;line-height:1.25;font-family:monospace;-inkscape-font-specification:'monospace Bold';word-spacing:0px;fill:#000080;stroke-width:0.264583"
       id="path9652" />
    <path
       d="m -2850.0607,51.027678 c -0.2473,-0.03922 -0.5029,-0.0461 -0.7678,-0.0227 -0.2623,0.02374 -0.5359,0.07585 -0.8184,0.15912 l -0.1251,0.779192 c 0.3125,-0.125549 0.6023,-0.209904 0.8706,-0.253635 0.2683,-0.0437 0.5191,-0.04635 0.7511,-0.0096 0.3259,0.0517 0.5673,0.1832 0.7247,0.393609 0.1599,0.210792 0.2155,0.474832 0.1649,0.793395 0,0.203437 -0.1088,0.391351 -0.2286,0.570852 -0.1182,0.177183 -0.3305,0.402129 -0.6347,0.67267 -0.1601,0.13661 -0.4499,0.36876 -0.868,0.697028 -0.4176,0.328317 -0.9024,0.704917 -1.4585,1.131461 l -0.099,0.650399 3.4664,0.549019 0.1023,-0.650121 -2.6234,-0.415513 c 0.6478,-0.495625 1.1317,-0.866976 1.4482,-1.117262 0.3191,-0.249874 0.5633,-0.446934 0.7324,-0.589972 0.3015,-0.255268 0.5273,-0.496232 0.6778,-0.723152 0.1537,-0.226476 0.2497,-0.463114 0.2881,-0.707771 0.076,-0.481554 -0.032,-0.896662 -0.3286,-1.246445 -0.2916,-0.351837 -0.7153,-0.5721 -1.2734,-0.660502 z m -10.7734,-1.599506 -0.9035,5.706227 3.532,0.559419 0.1024,-0.650101 -2.7568,-0.436617 0.8005,-5.056149 z m 4.7368,4.080247 -0.099,0.626992 1.9928,0.315624 0.099,-0.62699 z m -4.0185,3.334307 c -0.609,-0.09645 -1.1081,0.0817 -1.4983,0.531952 -0.39,0.450235 -0.6625,1.162665 -0.8172,2.13872 -0.1532,0.973614 -0.1104,1.734281 0.1169,2.282739 0.2317,0.548736 0.6511,0.872381 1.2604,0.968869 0.6091,0.09646 1.1082,-0.08169 1.4982,-0.531947 0.3925,-0.449839 0.6664,-1.160721 0.8205,-2.134244 0.1536,-0.976179 0.1104,-1.738279 -0.1199,-2.287201 -0.232,-0.548759 -0.6513,-0.872395 -1.2605,-0.968891 z m 4.7127,0.746427 c -0.6092,-0.09647 -1.1081,0.08169 -1.4981,0.531956 -0.3901,0.450235 -0.6629,1.162646 -0.8171,2.138729 -0.1535,0.973606 -0.1103,1.734274 0.1168,2.282725 0.2316,0.548731 0.6511,0.872383 1.2605,0.968873 0.609,0.09645 1.11,-0.08139 1.4998,-0.531663 0.3927,-0.449847 0.6646,-1.161025 0.8187,-2.134537 0.1535,-0.976182 0.1105,-1.738162 -0.1179,-2.286898 -0.2318,-0.548755 -0.6533,-0.872712 -1.2625,-0.969188 z m -4.8096,-0.134922 c 0.362,0.05734 0.5998,0.293164 0.7145,0.708377 0.1171,0.415615 0.1128,1.020812 -0.014,1.813322 -0.1255,0.789985 -0.308,1.363515 -0.5477,1.72265 -0.2372,0.359509 -0.5365,0.512192 -0.8985,0.454859 -0.3594,-0.05688 -0.597,-0.294668 -0.7141,-0.710284 -0.1147,-0.415233 -0.1098,-1.016966 0.017,-1.806985 0.1256,-0.79256 0.3079,-1.36945 0.5447,-1.729032 0.2395,-0.359119 0.5389,-0.509856 0.8983,-0.452946 z m 4.7128,0.746427 c 0.362,0.05734 0.5998,0.293147 0.7143,0.708369 0.1172,0.415619 0.1129,1.020802 -0.013,1.813382 -0.1259,0.789989 -0.3082,1.363514 -0.5477,1.722647 -0.2372,0.359498 -0.5367,0.512172 -0.8988,0.454857 -0.3592,-0.05686 -0.5969,-0.294671 -0.714,-0.710302 -0.1146,-0.415219 -0.1098,-1.016926 0.016,-1.8069 0.1257,-0.792561 0.3079,-1.369458 0.5447,-1.729026 0.2398,-0.359122 0.5388,-0.509864 0.8983,-0.452954 z m -5.0083,1.069546 c -0.1375,-0.02168 -0.2634,0.01 -0.379,0.09618 -0.1131,0.08658 -0.1819,0.199285 -0.2041,0.339457 0,0.149352 0.02,0.276987 0.084,0.389113 0.08,0.112089 0.1929,0.180852 0.3357,0.203458 0.1452,0.02311 0.2753,-0.0087 0.3902,-0.09239 0.1178,-0.08325 0.1871,-0.195832 0.21,-0.338534 0,-0.141638 -0.02,-0.268231 -0.095,-0.386817 -0.086,-0.118111 -0.1997,-0.187858 -0.3425,-0.210456 z m 4.7127,0.746426 c -0.1374,-0.02166 -0.2636,0.01 -0.3792,0.09618 -0.113,0.08658 -0.1797,0.199587 -0.2021,0.339754 0,0.149353 0.02,0.276711 0.082,0.38882 0.08,0.112099 0.1931,0.180848 0.3359,0.203465 0.1451,0.02309 0.2752,-0.0088 0.3903,-0.09242 0.1177,-0.08324 0.1891,-0.195531 0.2118,-0.338231 0,-0.141639 -0.02,-0.268546 -0.097,-0.38711 -0.086,-0.118113 -0.1997,-0.187854 -0.3425,-0.210461 z m -20.5419,-13.150119 2.1365,0.338388 0.6065,10.986603 2.953,-6.487803 1.843,0.291927 0.8272,7.086514 3.9719,-10.261475 2.1364,0.338391 -5.158,12.660834 -2.0662,-0.327248 -0.9597,-7.540724 -3.2312,6.876939 -2.066,-0.32724 z"
       style="font-size:15.8221px;line-height:1.25;font-family:monospace;-inkscape-font-specification:monospace;word-spacing:0px;baseline-shift:sub;fill:#800000;stroke-width:0.132549"
       id="path534" />
    <path
       d="m -2916.8489,-45.723718 0.813,0.902951 3.2821,-2.954766 -1.0942,-0.775581 0.5266,-0.47862 1.0831,0.77465 0.5227,0.580803 -3.8052,3.425966 0.8033,0.89175 -0.4866,0.442781 -2.134,-2.370051 z m -0.9735,-4.435979 q 0,-0.210998 0.3717,-0.136662 0.2161,0.0088 0.3559,0.163809 0.1449,0.161078 0.1336,0.379674 0.01,0.218737 -0.1789,0.356567 0,0.214834 -0.3768,0.131138 -0.2131,-0.01122 -0.3612,-0.175333 -0.145,-0.16119 -0.134,-0.368732 -0.01,-0.206359 0.1849,-0.352829 z m 2.0991,-1.197132 q -0.3653,-0.405643 -0.9837,-0.213283 -0.6159,0.195303 -1.5107,1.000585 -0.8917,0.802585 -1.1503,1.394492 -0.2511,0.596973 0.1088,1.000288 0.3678,0.408456 0.9837,0.213315 0.6188,-0.192225 1.5101,-0.995044 0.8947,-0.805412 1.1521,-1.399125 0.2505,-0.595425 -0.1093,-1.00053 z m 0.4615,-0.412915 q 0.6189,0.687287 0.3709,1.545779 -0.2489,0.860206 -1.346,1.85354 -1.0995,0.988791 -1.9809,1.143325 -0.88,0.156482 -1.4989,-0.530887 -0.6191,-0.687367 -0.371,-1.546037 0.2466,-0.858611 1.3438,-1.849516 1.1018,-0.991678 1.9806,-1.149046 0.8804,-0.156309 1.4995,0.531098 z m 7.0997,4.758501 1.7759,1.972747 -0.4871,0.442113 -2.3486,-2.608631 0.4876,-0.44139 q 1.0515,0.02796 1.8481,0.03946 0.7969,0.01171 1.1124,0.0033 0.6099,-0.02821 0.9163,-0.121618 0.3089,-0.09637 0.5366,-0.300933 0.3569,-0.325449 0.3672,-0.72279 0.024,-0.393223 -0.3165,-0.762105 -0.2356,-0.26189 -0.5898,-0.464039 -0.3534,-0.201899 -0.8367,-0.350763 l 0.5884,-0.527091 q 0.4078,0.169457 0.7356,0.389224 0.3313,0.223014 0.5825,0.502144 0.5671,0.629765 0.5747,1.315393 0.013,0.6857 -0.5323,1.173968 -0.2757,0.248379 -0.6689,0.367742 -0.3899,0.12222 -0.9824,0.135116 -0.3317,0.0073 -0.9398,-0.0028 -0.6055,-0.007 -1.8279,-0.04061 z m -1.877,-4.820457 1.3493,1.498676 -0.4716,0.424866 -1.3491,-1.498463 z m -1.1137,-6.15321 0.5258,0.58388 -3.806,3.425599 1.8676,2.07406 -0.488,0.44125 -2.3928,-2.657559 z m -10.4365,-11.747227 1.4471,1.607359 -6.4423,8.920131 6.3775,-3.183729 1.2488,1.386753 -3.8173,6.027558 9.544,-5.475214 1.4479,1.607623 -11.9765,6.593116 -1.3996,-1.5544 3.9994,-6.464326 -6.839,3.310814 -1.3996,-1.554519 z"
       style="font-size:15.8221px;line-height:1.25;font-family:monospace;-inkscape-font-specification:monospace;word-spacing:0px;baseline-shift:sub;fill:#800000;stroke-width:0.132549"
       id="path608" />
    <path
       d="m -2879.336,5.8166086 q 0,-0.2120277 -0.038,-0.3938641 0.069,-0.2055684 0.2559,-0.2969649 0.1946,-0.095028 0.4016,-0.023693 0.2073,0.071207 0.3007,0.2624989 0,0.2158821 0.031,0.3974857 -0.072,0.2020057 -0.2678,0.2985 -0.1949,0.095116 -0.3914,0.027326 -0.1933,-0.069366 -0.2918,-0.2710782 z m -0.5716,-2.3478065 q -0.4905,0.2391902 -0.4762,0.8867976 0.011,0.6461902 0.5475,1.72703 0.5264,1.0782214 1.0239,1.4900904 0.5011,0.409992 0.9918,0.170736 0.4937,-0.24087 0.4761,-0.886723 -0.011,-0.6476798 -0.5404,-1.7258676 -0.5274,-1.0818516 -1.0288,-1.4919411 -0.4977,-0.4116896 -0.9916,-0.1707972 z m -0.2735,-0.555824 q 0.8313,-0.4054295 1.5881,0.069382 0.7604,0.4730995 1.4103,1.8054492 0.6486,1.3285604 0.5533,2.2191803 -0.092,0.888777 -0.9232,1.294271 -0.8316,0.405603 -1.5884,-0.06927 -0.7567,-0.474887 -1.4049,-1.8037354 -0.6501,-1.3321288 -0.5541,-2.2220645 0.092,-0.8888455 0.9237,-1.2944022 z m -3.2025,7.3752249 1.0923,-0.5327329 -1.9358,-3.969174 -1.0471,0.8378991 -0.3098,-0.6408951 1.0434,-0.8275158 0.7024,-0.3426613 2.2445,4.6023281 1.0783,-0.525918 0.2873,0.591817 -2.8665,1.3980319 z m 5.8372,-10.98757383 2.3861,-1.16383387 0.2881,0.5915259 -3.1555,1.53895477 -0.2879,-0.5914823 q 0.3166,-1.00271377 0.5473,-1.76550177 0.231,-0.7627876 0.3101,-1.0683966 0.1409,-0.5940661 0.1351,-0.9142513 -0.016,-0.3235609 -0.1412,-0.598685 -0.2104,-0.4351724 -0.5899,-0.5562493 -0.3745,-0.1231466 -0.8195,0.094019 -0.317,0.1544718 -0.6088,0.4389454 -0.2919,0.284416 -0.5675,0.7074733 l -0.3478,-0.708995 q 0.2752,-0.3452241 0.577,-0.6001192 0.3056,-0.2566784 0.643,-0.4212147 0.7617,-0.3715404 1.423,-0.1902386 0.6626,0.1762644 0.9834,0.8337048 0.1628,0.3334776 0.1698,0.744019 0.017,0.4083453 -0.1415,0.981786 -0.084,0.3211967 -0.2614,0.90271 -0.1737,0.5798822 -0.5433,1.74629457 z m -5.151,0.4755162 1.8126,-0.88403397 0.2779,0.57063757 -1.8124,0.8839257 z m -6.222,-0.6256247 0.7062,-0.34441007 2.2444,4.6023654 2.5082,-1.2233142 0.286,0.5922735 -3.2143,1.5676861 z m -14.1688,6.79430043 1.9445,-0.9482688 6.7984,8.6518297 -1.3019,-7.0083461 1.6772,-0.8180406 4.7422,5.3305477 -2.6317,-10.68396353 1.9441,-0.9482515 3.0365,13.32979103 -1.8804,0.917071 -5.1113,-5.6265779 1.2978,7.4865979 -1.8799,0.916974 z"
       style="font-size:15.8221px;line-height:1.25;font-family:monospace;-inkscape-font-specification:monospace;word-spacing:0px;baseline-shift:sub;fill:#0000ff;stroke-width:0.132549"
       id="path571" />
    <path
       d="m -2872.6028,-78.964873 1.0918,0.556379 2.0223,-3.968029 -1.3104,-0.334749 0.3267,-0.639586 1.2994,0.337931 0.7025,0.357945 -2.3442,4.601236 1.0782,0.549318 -0.2993,0.592003 -2.8657,-1.460192 z m -4.2887,-2.185024 1.0924,0.556506 2.0221,-3.968059 -1.3103,-0.334741 0.3243,-0.640662 1.2998,0.338007 0.7027,0.358008 -2.3446,4.601159 1.0783,0.549346 -0.3016,0.59094 -2.8658,-1.46018 z m 12.3926,-1.967337 2.3858,1.215631 -0.3018,0.590949 -3.1541,-1.60714 0.3028,-0.590541 q 0.9993,-0.353749 1.7542,-0.630693 0.7541,-0.277166 1.0482,-0.398881 0.5644,-0.246951 0.8189,-0.445857 0.2565,-0.202236 0.3963,-0.477076 0.2222,-0.43419 0.084,-0.813367 -0.1283,-0.376344 -0.5733,-0.603095 -0.3165,-0.161284 -0.7227,-0.223699 -0.4062,-0.06243 -0.9145,-0.02783 l 0.3621,-0.709201 q 0.4455,0.01228 0.8337,0.100646 0.3922,0.09021 0.7297,0.262273 0.7615,0.388009 1.0168,1.030643 0.2607,0.640941 -0.079,1.297909 -0.1712,0.332891 -0.4969,0.587997 -0.3232,0.255923 -0.8763,0.48214 -0.31,0.12679 -0.8858,0.337178 -0.5725,0.21209 -1.7367,0.622184 z m -3.5089,-3.859989 1.8118,0.923195 -0.2894,0.570817 -1.8125,-0.923343 z m -3.2723,-5.390967 0.7057,0.359713 -2.3441,4.601283 2.5073,1.277532 -0.3009,0.591269 -3.2134,-1.637326 z m -13.9531,-7.227685 1.9276,0.982164 -2.8188,10.636111 4.8132,-5.257783 1.6627,0.847209 -1.4037,6.995164 6.9482,-8.531979 1.9279,0.982219 -8.8184,10.447159 -1.8637,-0.949667 1.4175,-7.468235 -5.1984,5.541807 -1.8639,-0.949698 z"
       style="font-size:15.8221px;line-height:1.25;font-family:monospace;-inkscape-font-specification:monospace;word-spacing:0px;baseline-shift:sub;fill:#800000;stroke-width:0.133676"
       id="path645" />
    <path
       d="m -2921.1311,-0.49406943 q 0,-0.211447 -0.1593,-0.362495 0.01,-0.21605067 0.1514,-0.36130767 0.1559,-0.150617 0.375,-0.146829 0.2192,0.0038 0.3667,0.157041 0,0.21529267 0.1537,0.36816667 -0.01,0.213552 -0.1628,0.3666827 -0.1559,0.15060297 -0.364,0.14700397 -0.2052,-0.0062 -0.3609,-0.16774467 z m -1.269,-2.05623707 q -0.3924,0.378951 -0.1785,0.9902907 0.2082,0.61164137 1.0534,1.47396704 0.834,0.86275934 1.4346,1.10046936 0.6033,0.2351516 0.9962,-0.14400902 0.3952,-0.38174967 0.1787,-0.99050734 -0.2086,-0.61306367 -1.0492,-1.47326104 -0.8357,-0.8660177 -1.4393,-1.1009984 -0.6006,-0.237691 -0.996,0.1441467 z m -0.4319,-0.4441187 q 0.6654,-0.6425447 1.5321,-0.4248867 0.8695,0.214928 1.8991,1.2811744 1.0275,1.0631414 1.2121,1.93958474 0.1873,0.87368334 -0.478,1.51626596 -0.6653,0.6425337 -1.5322,0.4249867 -0.8666,-0.2177117 -1.8934,-1.28128299 -1.03,-1.06608534 -1.214,-1.94206201 -0.1873,-0.8738384 0.4782,-1.5162481 z m -0.4793,7.7266395 1.9096,-1.8442557 0.4549,0.4749181 -2.5253,2.4386423 -0.4556,-0.4742888 q -0.01,-1.051452 -0.022,-1.8479785 -0.014,-0.796901 -0.038,-1.1119161 -0.054,-0.6079157 -0.1539,-0.9115604 -0.1194,-0.302181 -0.3191,-0.52577662 -0.3341,-0.34942667 -0.7333,-0.34664997 -0.3939,-0.0014 -0.7502,0.34257397 -0.2537,0.24478362 -0.4431,0.60543972 -0.1894,0.3605966 -0.3211,0.8482683 l -0.55,-0.5667627 q 0.1552,-0.4133667 0.3635,-0.7490913 0.2116,-0.33860702 0.4814,-0.59949669 0.6094,-0.58855867 1.2944,-0.62045367 0.6849,-0.03729 1.1931,0.48886367 0.2575,0.26701967 0.3918,0.65515467 0.1353,0.38604162 0.1708,0.97709532 0.028,0.3304897 0.032,0.93958 0.011,0.6051966 0.022,1.8285777 z m 1.6073,-11.7237631 1.9097,-1.8442401 0.4567,0.4735827 -2.5252,2.4387098 -0.4562,-0.4741377 q -0.01,-1.0515424 -0.022,-1.8482701 -0.014,-0.7968314 -0.038,-1.1118724 -0.055,-0.6079877 -0.154,-0.9113114 -0.1193,-0.302118 -0.3193,-0.525749 -0.3339,-0.34945 -0.7331,-0.346722 -0.3938,-0.0015 -0.7503,0.342673 -0.2537,0.244782 -0.4433,0.605549 -0.1895,0.3606537 -0.3209,0.8482164 l -0.55,-0.5667827 q 0.1548,-0.4133607 0.3633,-0.7490897 0.2113,-0.338557 0.4814,-0.599298 0.6097,-0.588748 1.2946,-0.62062 0.6845,-0.03708 1.1929,0.489004 0.2585,0.266196 0.3914,0.655169 0.1416,0.383275 0.1707,0.9770837 0.028,0.3305207 0.032,0.9392694 0.011,0.6052577 0.022,1.8286981 z m -4.752,2.0439988 1.4507,-1.4008891 0.4408,0.4568217 -1.4508,1.4007581 z m -6.1107,1.3276991 0.5653,-0.5458377 3.5566,3.68361717 2.0074,-1.93853007 0.4551,0.4748817 -2.5725,2.48423671 z m -11.3756,10.8400892 1.5563,-1.5027737 9.1391,6.1276624 -3.4038,-6.2630506 1.3421,-1.2962952 6.1572,3.6042629 -5.8044,-9.3478042 1.5559,-1.5025431 7.0072,11.7390359 -1.5051,1.4532713 -6.5998,-3.7717186 3.5478,6.7191306 -1.5045,1.453009 z"
       style="font-size:15.8221px;line-height:1.25;font-family:monospace;-inkscape-font-specification:monospace;word-spacing:0px;baseline-shift:sub;fill:#800000;stroke-width:0.132549"
       id="path658" />
    <path
       d="m -2852.9063,-137.23846 1.2103,-0.19171 -0.6969,-4.39874 -1.2566,0.49935 -0.1114,-0.70933 1.2502,-0.49044 0.7787,-0.12326 0.8076,5.10045 1.1951,-0.18927 0.1063,0.65512 -3.1765,0.50312 z m -4.3566,0.69001 2.6447,-0.41881 0.1046,0.65533 -3.4968,0.55382 -0.1044,-0.65526 q 0.6003,-0.87362 1.0481,-1.54128 0.4473,-0.6676 0.6138,-0.93899 0.3113,-0.53142 0.4004,-0.8419 0.088,-0.31444 0.039,-0.61886 -0.078,-0.48169 -0.405,-0.71047 -0.3244,-0.22914 -0.8183,-0.15095 -0.351,0.0554 -0.716,0.24382 -0.3656,0.1883 -0.7563,0.51499 l -0.1257,-0.78639 q 0.3673,-0.25181 0.7338,-0.40866 0.3699,-0.15741 0.744,-0.21665 0.8442,-0.13368 1.4284,0.23613 0.5874,0.36538 0.703,1.09399 0.06,0.36977 -0.057,0.76767 -0.1109,0.39696 -0.4256,0.90521 -0.1764,0.28479 -0.5187,0.79348 -0.3383,0.50806 -1.039,1.52401 z m 8.1098,-8.75535 2.6444,-0.41885 0.1065,0.65511 -3.4966,0.55387 -0.1044,-0.65526 q 0.6006,-0.87362 1.048,-1.54127 0.4474,-0.6676 0.6141,-0.939 0.3111,-0.5314 0.4001,-0.84187 0.087,-0.3144 0.039,-0.61892 -0.077,-0.48163 -0.4051,-0.7104 -0.3248,-0.22916 -0.8184,-0.151 -0.3506,0.0554 -0.716,0.24383 -0.3654,0.18829 -0.7564,0.51497 l -0.1254,-0.78636 q 0.3673,-0.25181 0.7337,-0.40864 0.3703,-0.15748 0.7444,-0.21671 0.8441,-0.13366 1.4282,0.23615 0.5874,0.36539 0.7029,1.09399 0.064,0.36949 -0.057,0.76769 -0.111,0.39694 -0.4258,0.90521 -0.176,0.2848 -0.5183,0.79348 -0.3385,0.50805 -1.0391,1.52403 z m -5.1077,-1.06028 2.0085,-0.31815 0.099,0.63232 -2.0085,0.31817 z m -5.8163,-2.43795 0.7829,-0.12387 0.8076,5.10043 2.7797,-0.44023 0.1023,0.65544 -3.5619,0.56413 z m -15.5362,2.35403 2.1367,-0.33841 3.9717,10.26147 0.8038,-7.08281 1.8428,-0.29196 2.9765,6.48411 0.6065,-10.98663 2.1365,-0.3384 -0.9931,13.63513 -2.0664,0.32725 -3.2428,-6.87512 -0.948,7.53891 -2.0661,0.32723 z"
       style="font-size:15.8221px;line-height:1.25;font-family:monospace;-inkscape-font-specification:monospace;word-spacing:0px;baseline-shift:sub;fill:#800000;stroke-width:0.133676"
       id="path671" />
    <path
       d="m -2703.7916,43.080042 2.1303,-0.375625 4.1504,10.190576 0.6801,-7.095744 1.8374,-0.324021 3.0893,6.431131 0.4145,-10.995495 2.1303,-0.375638 -0.755,13.650374 -2.0601,0.363242 -3.3624,-6.817441 -0.8163,7.554258 -2.0599,0.363235 z m 23.3401,6.316001 q 0,-0.214222 0.081,-0.390663 0.1228,-0.180099 0.3303,-0.216668 0.2153,-0.03792 0.3961,0.08861 0.1807,0.126594 0.2177,0.337901 0,0.218127 -0.089,0.392051 -0.1233,0.17622 -0.3424,0.214855 -0.215,0.03791 -0.3868,-0.08231 -0.1678,-0.120939 -0.207,-0.343778 z m 0.098,-2.433502 q -0.5417,0.0955 -0.7078,0.726885 -0.162,0.63067 0.049,1.825428 0.2097,1.190979 0.5781,1.728122 0.3719,0.53652 0.9135,0.441006 0.5455,-0.09622 0.7077,-0.726876 0.1658,-0.631344 -0.045,-1.822248 -0.2101,-1.194851 -0.5827,-1.731263 -0.3679,-0.537212 -0.9134,-0.441021 z m -0.1098,-0.614565 q 0.9182,-0.161888 1.5198,0.508423 0.605,0.669655 0.8647,2.141017 0.2588,1.467528 -0.081,2.303806 -0.3361,0.835644 -1.2544,0.997555 -0.9179,0.161852 -1.5193,-0.508457 -0.6016,-0.670309 -0.8604,-2.137838 -0.2593,-1.471396 0.077,-2.306988 0.336,-0.835632 1.2541,-0.997518 z m -4.726,3.883403 q 0,-0.214225 0.081,-0.390688 0.1228,-0.180093 0.3301,-0.216646 0.2151,-0.03792 0.396,0.08863 0.1806,0.12659 0.218,0.337857 0,0.218128 -0.089,0.392072 -0.1233,0.176234 -0.3423,0.214842 -0.2149,0.0379 -0.3869,-0.08229 -0.1678,-0.120944 -0.207,-0.343774 z m 0.097,-2.433502 q -0.5415,0.09551 -0.7074,0.726857 -0.1621,0.630664 0.049,1.825428 0.2097,1.190975 0.5781,1.728116 0.372,0.536525 0.9136,0.441023 0.5455,-0.09624 0.7075,-0.726861 0.1662,-0.631378 -0.045,-1.822255 -0.2101,-1.19485 -0.5829,-1.731254 -0.3677,-0.537225 -0.9135,-0.44102 z m -0.1097,-0.614566 q 0.9181,-0.161899 1.5197,0.508426 0.6051,0.669661 0.8648,2.141009 0.2587,1.467541 -0.081,2.303815 -0.3361,0.835638 -1.2542,0.997523 -0.9181,0.161898 -1.5197,-0.508416 -0.6015,-0.670334 -0.86,-2.137886 -0.2592,-1.471398 0.076,-2.306966 0.3359,-0.835616 1.254,-0.997505 z m 7.4633,-3.456828 1.2064,-0.212707 -0.7732,-4.383333 -1.2471,0.520947 -0.1218,-0.707121 1.2409,-0.51191 0.7758,-0.13682 0.8961,5.082554 1.1907,-0.209945 0.1179,0.652774 -3.1653,0.558137 z m -4.727,-1.040133 2.0019,-0.352951 0.11,0.630141 -2.0013,0.352904 z m -5.8542,-2.3347 0.78,-0.13753 0.8962,5.082566 2.7697,-0.488392 0.1158,0.652984 -3.5498,0.62592 z m -15.4746,2.728596 2.1303,-0.375626 4.1504,10.190576 0.6801,-7.095745 1.8374,-0.324019 3.0893,6.431131 0.4145,-10.995493 2.1304,-0.375636 -0.7551,13.650372 -2.0601,0.36324 -3.3624,-6.817441 -0.8163,7.554259 -2.0599,0.363236 z"
       style="font-size:24.3417px;line-height:1.25;font-family:monospace;-inkscape-font-specification:monospace;word-spacing:0px;fill:#008000;stroke-width:0.264583"
       id="path860" />
    <path
       d="m -2491.6397,-156.18149 q -1.2479,0 -1.9611,1.10536 -0.7131,1.09347 -0.7131,3.0546 0,1.96112 0.7131,3.06648 0.7132,1.09347 1.9611,1.09347 1.2599,0 1.9731,-1.09347 0.7131,-1.10536 0.7131,-3.06648 0,-1.96113 -0.7131,-3.0546 -0.7132,-1.10536 -1.9731,-1.10536 z m -6.1567,4.15996 q 0,-3.221 1.664,-5.09892 1.6759,-1.88981 4.4927,-1.88981 2.8288,0 4.4928,1.88981 1.6759,1.87792 1.6759,5.09892 0,3.22099 -1.6759,5.1108 -1.664,1.87793 -4.4928,1.87793 -2.8168,0 -4.4927,-1.87793 -1.664,-1.88981 -1.664,-5.1108 z m 12.5155,-33.4223 q -0.5705,-0.52296 -1.343,-0.78445 -0.7607,-0.26148 -1.6759,-0.26148 -1.1054,0 -1.9374,0.39222 -0.8201,0.38034 -1.2717,1.11725 -0.2853,0.45165 -0.4041,1.09347 -0.107,0.64183 -0.107,1.94924 v 6.13297 h -3.4825 v -13.31187 h 3.4825 v 2.0681 q 0.5111,-1.14102 1.5689,-1.75907 1.0578,-0.62994 2.4722,-0.62994 0.7131,0 1.3906,0.17829 0.6894,0.16639 1.3074,0.49919 z m 0,-30.42712 q -0.5705,-0.52297 -1.343,-0.78445 -0.7607,-0.26149 -1.6759,-0.26149 -1.1054,0 -1.9374,0.39223 -0.8201,0.38034 -1.2717,1.11725 -0.2853,0.45165 -0.4041,1.09347 -0.107,0.64182 -0.107,1.94924 v 6.13297 h -3.4825 v -13.31187 h 3.4825 v 2.06809 q 0.5111,-1.14102 1.5689,-1.75907 1.0578,-0.62993 2.4722,-0.62993 0.7131,0 1.3906,0.17828 0.6894,0.1664 1.3074,0.4992 z m -0.6299,-20.78791 h -11.0536 v -17.74519 h 11.0536 v 3.09025 h -7.5474 v 3.82716 h 6.8343 v 3.09026 h -6.8343 v 4.64727 h 7.5474 z"
       style="font-style:normal;font-variant:normal;font-weight:bold;font-stretch:normal;font-size:24.3417px;line-height:1.25;font-family:monospace;-inkscape-font-specification:'monospace Bold';word-spacing:0px;fill:#000080;stroke-width:0.264583"
       id="path9645" />
  </g>
</svg>
